<?xml version="1.0" encoding="utf-8"?>
<!-- Generator: Adobe Illustrator 27.5.0, SVG Export Plug-In . SVG Version: 6.00 Build 0)  -->
<svg version="1.1" xmlns="http://www.w3.org/2000/svg" xmlns:xlink="http://www.w3.org/1999/xlink" x="0px" y="0px"
	 viewBox="0 0 500 500" style="enable-background:new 0 0 500 500;" xml:space="preserve">
<g id="Background_Simple">
	<g>
		<path id="XMLID_903_" style="fill:#0891b2;" d="M288.307,447.285c0,0-46.717,9.469-89.228,0
			c-25.985-5.788-80.756-19.517-93.679-50.637c-12.923-31.121,49.3-57.672,18.725-89.242
			c-13.187-13.616-76.482-31.582-72.922-119.917c3.56-88.336,96.299-142.193,225.182-139.792
			c128.883,2.401,203.257,119.587,153.411,177.302c-49.846,57.715-71.302,57.879-48.706,104.874
			C403.686,376.867,372.313,433.835,288.307,447.285z"/>
		<path id="XMLID_902_" style="opacity:0.7;fill:#FFFFFF;" d="M288.307,447.285c0,0-46.717,9.469-89.228,0
			c-25.985-5.788-80.756-19.517-93.679-50.637c-12.923-31.121,49.3-57.672,18.725-89.242
			c-13.187-13.616-76.482-31.582-72.922-119.917c3.56-88.336,96.299-142.193,225.182-139.792
			c128.883,2.401,203.257,119.587,153.411,177.302c-49.846,57.715-71.302,57.879-48.706,104.874
			C403.686,376.867,372.313,433.835,288.307,447.285z"/>
	</g>
</g>
<g id="Count">
	<g>
		<g>
			<g>
				<path style="fill:#263238;" d="M140.814,410.6c1.518-0.147,1.788-0.912,2.011-1.781l1.322-0.127l1.2,12.504l-1.965,0.188
					l-0.915-9.538l-1.518,0.146L140.814,410.6z"/>
			</g>
			
				<line style="fill:none;stroke:#263238;stroke-linecap:round;stroke-linejoin:round;stroke-miterlimit:10;" x1="152.421" y1="399.014" x2="157.224" y2="395.402"/>
			<polyline style="fill:none;stroke:#263238;stroke-linecap:round;stroke-linejoin:round;stroke-miterlimit:10;" points="
				141.142,397.554 147.078,403.032 150.447,400.499 			"/>
			<polyline style="fill:none;stroke:#263238;stroke-linecap:round;stroke-linejoin:round;stroke-miterlimit:10;" points="
				130.164,410.946 125.893,405.852 136.462,406.141 134.995,391.882 137.435,394.134 			"/>
			<polyline style="fill:none;stroke:#263238;stroke-linecap:round;stroke-linejoin:round;stroke-miterlimit:10;" points="
				135.188,427.429 136.056,422.592 123.886,419.291 133.186,414.552 131.913,413.032 			"/>
			<polyline style="fill:none;stroke:#263238;stroke-linecap:round;stroke-linejoin:round;stroke-miterlimit:10;" points="
				146.209,430.555 142.442,426.562 134.317,432.29 134.72,430.043 			"/>
			
				<line style="fill:none;stroke:#263238;stroke-linecap:round;stroke-linejoin:round;stroke-miterlimit:10;" x1="148.894" y1="433.401" x2="147.828" y2="432.272"/>
			<polyline style="fill:none;stroke:#263238;stroke-linecap:round;stroke-linejoin:round;stroke-miterlimit:10;" points="
				157.224,425.49 152.785,424.355 154.602,439.453 151.98,436.673 			"/>
			<polyline style="fill:none;stroke:#263238;stroke-linecap:round;stroke-linejoin:round;stroke-miterlimit:10;" points="
				160.201,417.321 156.821,419.067 165.672,427.651 159.83,426.157 			"/>
			<polyline style="fill:none;stroke:#263238;stroke-linecap:round;stroke-linejoin:round;stroke-miterlimit:10;" points="
				162.497,414.317 164.148,415.282 162.267,416.254 			"/>
			<polyline style="fill:none;stroke:#263238;stroke-linecap:round;stroke-linejoin:round;stroke-miterlimit:10;" points="
				160.404,398.048 156.329,410.715 161.013,413.45 			"/>
		</g>
		<g>
			<g>
				<path style="fill:#263238;" d="M159.367,369.478c-0.733,0.069-1.157,0.511-1.057,1.558l0.149,1.571l-2.178,0.207l-0.136-1.425
					c-0.223-2.346,0.823-3.798,3.086-4.013c2.262-0.215,3.563,1.015,3.786,3.36c0.186,1.948-0.378,3.587-2.297,6.073
					c-1.222,1.596-1.534,2.322-1.46,3.098c0.01,0.104,0.02,0.21,0.051,0.312l4.357-0.414l0.199,2.096l-6.662,0.633l-0.171-1.802
					c-0.155-1.634,0.314-2.926,1.86-4.89c1.583-2.032,1.975-3.231,1.827-4.803C160.595,369.72,160.1,369.408,159.367,369.478z"/>
			</g>
			<polyline style="fill:none;stroke:#263238;stroke-linecap:round;stroke-linejoin:round;stroke-miterlimit:10;" points="
				141.496,370.342 137.868,366.385 150.261,366.174 149,357.659 			"/>
			<polyline style="fill:none;stroke:#263238;stroke-linecap:round;stroke-linejoin:round;stroke-miterlimit:10;" points="
				144.709,384.131 136.217,382.228 146.862,376.194 144.19,373.28 			"/>
			<polyline style="fill:none;stroke:#263238;stroke-linecap:round;stroke-linejoin:round;stroke-miterlimit:10;" points="
				165.672,396.903 158.326,389.777 149.108,396.908 150.64,385.461 147.389,384.732 			"/>
			<polyline style="fill:none;stroke:#263238;stroke-linecap:round;stroke-linejoin:round;stroke-miterlimit:10;" points="
				175.852,387.81 170.322,386.654 173.236,404.241 167.471,398.648 			"/>
			<polyline style="fill:none;stroke:#263238;stroke-linecap:round;stroke-linejoin:round;stroke-miterlimit:10;" points="
				180.9,376.734 174.775,380.252 180.202,385.067 			"/>
			<polyline style="fill:none;stroke:#263238;stroke-linecap:round;stroke-linejoin:round;stroke-miterlimit:10;" points="
				167.869,357.582 180.033,347.559 173.764,370.496 179.056,373.28 			"/>
			<polyline style="fill:none;stroke:#263238;stroke-linecap:round;stroke-linejoin:round;stroke-miterlimit:10;" points="
				148.336,353.17 147.8,349.552 162.531,361.981 164.869,360.054 			"/>
		</g>
		<g>
			<g>
				<path style="fill:#263238;" d="M207.879,390.076c0.126-1.646-0.415-2.134-1.33-2.203c-0.913-0.07-1.527,0.382-1.627,1.689
					l-0.09,1.176l-2.717-0.208l0.076-0.992c0.224-2.927,1.815-4.486,4.636-4.272c2.82,0.216,4.157,1.999,3.933,4.926l-0.036,0.47
					c-0.15,1.96-0.869,3.113-2.297,3.582l-0.004,0.053c1.39,0.736,1.862,2.112,1.721,3.968l-0.11,1.436
					c-0.223,2.926-1.815,4.485-4.635,4.271c-2.821-0.216-4.157-1.999-3.934-4.925l0.116-1.516l2.717,0.208l-0.129,1.697
					c-0.1,1.307,0.438,1.848,1.352,1.917c0.914,0.07,1.523-0.331,1.647-1.95l0.109-1.437c0.13-1.698-0.398-2.369-1.703-2.47
					l-0.967-0.073l0.199-2.612l1.124,0.086c1.07,0.082,1.76-0.338,1.872-1.802L207.879,390.076z"/>
			</g>
			<polyline style="fill:none;stroke:#263238;stroke-linecap:round;stroke-linejoin:round;stroke-miterlimit:10;" points="
				191.837,375.294 198.3,378.71 200.869,356.657 202.923,360.239 			"/>
			<polyline style="fill:none;stroke:#263238;stroke-linecap:round;stroke-linejoin:round;stroke-miterlimit:10;" points="
				187.03,399.47 188.616,396.865 179.075,387.715 190.767,384.84 181.129,369.636 188.262,373.405 			"/>
			<polyline style="fill:none;stroke:#263238;stroke-linecap:round;stroke-linejoin:round;stroke-miterlimit:10;" points="
				185.587,416.796 173.213,422.16 185.33,402.262 			"/>
			<polyline style="fill:none;stroke:#263238;stroke-linecap:round;stroke-linejoin:round;stroke-miterlimit:10;" points="
				214.169,418.274 212.48,430.875 199.129,410.926 190.942,414.475 			"/>
			<polyline style="fill:none;stroke:#263238;stroke-linecap:round;stroke-linejoin:round;stroke-miterlimit:10;" points="
				225.233,404.241 230.165,414.147 215.26,410.132 214.916,412.694 			"/>
			<polyline style="fill:none;stroke:#263238;stroke-linecap:round;stroke-linejoin:round;stroke-miterlimit:10;" points="
				223.62,375.175 227.223,373.743 221.447,386.917 237.597,395.753 222.779,399.31 223.6,400.96 			"/>
			<polyline style="fill:none;stroke:#263238;stroke-linecap:round;stroke-linejoin:round;stroke-miterlimit:10;" points="
				205.959,365.538 213.735,379.104 220.72,376.328 			"/>
		</g>
	</g>
	<g>
		<path style="fill:none;stroke:#263238;stroke-linecap:round;stroke-linejoin:round;stroke-miterlimit:10;" d="M60.692,149.44
			c-2.134-1.182-4.268-2.364-6.402-3.546"/>
		<path style="fill:none;stroke:#263238;stroke-linecap:round;stroke-linejoin:round;stroke-miterlimit:10;" d="M104.459,173.684
			C92,166,79,160,66.489,152.651"/>
		
			<line style="fill:none;stroke:#263238;stroke-linecap:round;stroke-linejoin:round;stroke-miterlimit:10;" x1="89.66" y1="175.22" x2="66.607" y2="168.251"/>
		<path style="fill:none;stroke:#263238;stroke-linecap:round;stroke-linejoin:round;stroke-miterlimit:10;" d="M409.504,143.662
			c9.809-6.588,19.618-13.176,29.427-19.764c0.804-0.54,1.608-1.08,2.412-1.62"/>
		<path style="fill:none;stroke:#263238;stroke-linecap:round;stroke-linejoin:round;stroke-miterlimit:10;" d="M395.264,153.226
			c3.367-2.261,6.733-4.522,10.1-6.783"/>
		<path style="fill:none;stroke:#263238;stroke-linecap:round;stroke-linejoin:round;stroke-miterlimit:10;" d="M428.156,150.055
			c3.14-1.512,6.281-3.025,9.421-4.537"/>
		<path style="fill:none;stroke:#263238;stroke-linecap:round;stroke-linejoin:round;stroke-miterlimit:10;" d="M405.263,161.08
			c5.909-2.846,11.819-5.692,17.728-8.538"/>
		<path style="fill:none;stroke:#263238;stroke-linecap:round;stroke-linejoin:round;stroke-miterlimit:10;" d="M263.268,431.23
			c1.243,9.668,2.485,19.335,3.728,29.003"/>
		<path style="fill:none;stroke:#263238;stroke-linecap:round;stroke-linejoin:round;stroke-miterlimit:10;" d="M261.296,415.885
			c0.415,3.232,0.831,6.464,1.246,9.696"/>
		<path style="fill:none;stroke:#263238;stroke-linecap:round;stroke-linejoin:round;stroke-miterlimit:10;" d="M276.621,437.711
			c0.712,2.89,1.424,5.779,2.137,8.669"/>
		<path style="fill:none;stroke:#263238;stroke-linecap:round;stroke-linejoin:round;stroke-miterlimit:10;" d="M273.329,424.355
			c0.605,2.456,1.211,4.911,1.816,7.367"/>
	</g>
</g>
<g id="Graphic_2">
	<g>
		<path style="fill:#06b6d4;stroke:#263238;stroke-linecap:round;stroke-linejoin:round;stroke-miterlimit:10;" d="M312.745,347.453
			c-6.203,0.27-8.373,4.917-9.117,7.673c-2.316-1.669-6.94-3.905-11.925-0.203c-5.405,4.027-4.769,12.51,2.846,17.759
			c5.484,3.77,12.642,5.141,16.219,5.606c0.428,0.058,0.814,0.095,1.127,0.124c0.225-0.219,0.501-0.492,0.796-0.807
			c2.483-2.616,7.174-8.194,9.043-14.574C324.345,354.152,319.48,347.17,312.745,347.453z"/>
		<g>
			<g>
				<path style="fill:none;stroke:#263238;stroke-linecap:round;stroke-linejoin:round;" d="M315.291,383.737
					c0,0,0.069,0.161,0.204,0.452"/>
				<path style="fill:none;stroke:#263238;stroke-linecap:round;stroke-linejoin:round;stroke-dasharray:1.0071,2.0142;" d="
					M316.395,385.986c2.666,4.992,10.06,16.406,21.083,14.381c14.035-2.577,11.099-17.821,3.635-12.751
					c-7.32,4.973,1.254,28.249,26.81,28.606"/>
				<path style="fill:none;stroke:#263238;stroke-linecap:round;stroke-linejoin:round;" d="M368.938,416.224
					c0.167-0.002,0.334-0.004,0.501-0.008"/>
			</g>
		</g>
	</g>
</g>
<g id="Graphic_1">
	<path style="fill:#FFFFFF;stroke:#263238;stroke-linecap:round;stroke-linejoin:round;stroke-miterlimit:10;" d="M178.922,160.174
		c0,0-3.041-14.603-0.062-26.584c0,0-6.727,11.789-12.107,12.419c-5.38,0.63-18.518-21.239-18.518-21.239s1.618,16.878-2.016,20.12
		c-3.633,3.242-28.869-10.735-28.869-10.735s15.94,14.771,14.628,19.965c-1.313,5.195-16.856,2.837-16.856,2.837
		s15.928,8.252,15.844,11.256c-0.084,3.004-7.544,6.118-7.544,6.118l15.872,4.738c0,0-4.191-12.008,9.053-20.618
		C161.591,149.84,178.922,160.174,178.922,160.174z"/>
</g>
<g id="Bubble">
	<g>
		<polygon style="fill:#FFFFFF;stroke:#263238;stroke-linecap:round;stroke-linejoin:round;stroke-miterlimit:10;" points="
			231.776,62.232 208.302,101.716 227.461,131.721 268.303,151.236 266.996,176.425 281.524,153.384 324.65,153.521 
			353.971,124.826 327.814,61.046 		"/>
		<g>
			<path style="fill:#263238;" d="M239.098,103.654l-0.44,3.012c-0.53,3.634-2.754,5.338-6.411,4.622
				c-3.601-0.705-5.142-3.095-4.614-6.641l1.71-11.478c0.525-3.517,2.67-5.257,6.275-4.735c3.663,0.531,5.284,2.865,4.757,6.47
				l-0.319,2.192l-3.556-0.576l0.352-2.399c0.235-1.596-0.422-2.317-1.602-2.496c-1.174-0.178-1.999,0.312-2.234,1.895
				l-1.779,12.016c-0.236,1.595,0.413,2.309,1.587,2.53c1.18,0.222,2.01-0.217,2.246-1.826l0.472-3.213L239.098,103.654z"/>
			<path style="fill:#263238;" d="M244.033,113.324l-3.857-0.753l3.305-22.735l3.859,0.561l-1.413,9.792l4.463,0.743l1.414-9.886
				l4.072,0.592l-3.315,23.352l-4.069-0.795l1.424-9.956l-4.462-0.775L244.033,113.324z"/>
			<path style="fill:#263238;" d="M261.55,102.618l5.767,0.959l-0.474,3.426l-5.767-1l-0.975,6.96l7.278,1.369l-0.477,3.457
				l-11.392-2.225l3.317-23.498l11.397,1.658l-0.472,3.419l-7.279-1.11L261.55,102.618z"/>
			<path style="fill:#263238;" d="M275.846,104.996l6.112,1.016l-0.475,3.531l-6.112-1.059l-0.976,7.17l7.716,1.451l-0.478,3.563
				l-12.076-2.358l3.323-24.198l12.078,1.756l-0.472,3.523l-7.716-1.176L275.846,104.996z"/>
			<path style="fill:#263238;" d="M294.058,96.897c4.611,0.667,6.712,3.341,6.183,7.419l-0.104,0.802l-4.525-0.719l0.137-1.047
				c0.236-1.805-0.535-2.622-2.035-2.85c-1.491-0.226-2.429,0.325-2.666,2.113c-0.242,1.826,0.512,3.34,3.292,6.12
				c3.603,3.624,4.598,5.969,4.217,8.904c-0.533,4.115-3.286,5.992-7.941,5.081c-4.573-0.896-6.606-3.646-6.073-7.648l0.205-1.535
				l4.361,0.785l-0.238,1.8c-0.238,1.802,0.608,2.627,2.099,2.908c1.499,0.283,2.531-0.194,2.769-2.013
				c0.243-1.855-0.523-3.402-3.298-6.215c-3.49-3.559-4.424-5.823-4.045-8.662C286.928,98.171,289.527,96.24,294.058,96.897z"/>
			<path style="fill:#263238;" d="M307.385,110.238l6.912,1.149l-0.473,3.762l-6.913-1.198l-0.973,7.633l8.731,1.642l-0.476,3.798
				l-13.658-2.667l3.318-25.744l13.648,1.984l-0.47,3.753l-8.726-1.33L307.385,110.238z"/>
			<path style="fill:#263238;" d="M321.635,122.082l0.534-9.743l1.372-11.045l5.244,0.762l-1.371,11.154l-1.867,9.593
				L321.635,122.082z M325.893,124.796l-0.502,4.09l-5.06-0.988l0.504-4.051L325.893,124.796z"/>
		</g>
		
			<line style="fill:none;stroke:#263238;stroke-linecap:round;stroke-linejoin:round;stroke-miterlimit:10;" x1="213.593" y1="120.667" x2="220.947" y2="132.402"/>
		
			<line style="fill:none;stroke:#263238;stroke-linecap:round;stroke-linejoin:round;stroke-miterlimit:10;" x1="293.629" y1="55.843" x2="298.725" y2="55.747"/>
		
			<line style="fill:none;stroke:#263238;stroke-linecap:round;stroke-linejoin:round;stroke-miterlimit:10;" x1="275.191" y1="56.191" x2="284.958" y2="56.007"/>
		<polyline style="fill:none;stroke:#263238;stroke-linecap:round;stroke-linejoin:round;stroke-miterlimit:10;" points="
			215.26,78.429 228.758,57.066 271.507,56.26 		"/>
		<path style="fill:none;stroke:#263238;stroke-linecap:round;stroke-linejoin:round;stroke-miterlimit:10;" d="M355.521,113.88
			c0.648,1.809,1.296,3.619,1.944,5.428"/>
		<path style="fill:none;stroke:#263238;stroke-linecap:round;stroke-linejoin:round;stroke-miterlimit:10;" d="M349.249,96.363
			c1.792,5.004,3.583,10.007,5.375,15.011"/>
		<path style="fill:none;stroke:#263238;stroke-linecap:round;stroke-linejoin:round;stroke-miterlimit:10;" d="M346.912,89.837
			c0.467,1.305,0.935,2.611,1.402,3.916"/>
		<polyline style="fill:none;stroke:#263238;stroke-linecap:round;stroke-linejoin:round;stroke-miterlimit:10;" points="
			313.956,159.659 328.045,159.659 336.89,150.055 		"/>
		
			<line style="fill:none;stroke:#263238;stroke-linecap:round;stroke-linejoin:round;stroke-miterlimit:10;" x1="300.534" y1="159.659" x2="305.717" y2="159.659"/>
	</g>
</g>
<g id="Camera">
	<g>
		<g>
			<g>
				<path style="fill:#FFFFFF;" d="M24.986,407.811c0,0,36.879-44.933,46.882-55.729c7.265-7.84,17.692-9.29,20.682-16.495
					c0,0,20.853-1.98,32.07-6.032c11.217-4.052,27.753-11.576,39.364-13.061c11.611-1.485,16.726-3.703,23.27-3.396
					c6.545,0.308,31.481,2.087,31.481,2.087c2.311-4.472,4.675-8.134-0.152-12.489s-21.89-9.2-28.568-7.639
					c0,0-35.174-5.001-36.412-6.188c-1.238-1.187-4.715-25.242,1.827-40.559l-36.926-2.696c0,0-53.628,59.439-104.841,78.217
					C13.664,323.831,6.912,379.498,24.986,407.811z"/>
				<g>
					<path style="opacity:0.4;fill:#06b6d4;" d="M216.52,301.22c-10.95,1.08-32.51,3.25-37.48,4.13
						c-6.72,1.19-27.48,2.38-27.48,2.38s-7.33,9.09-13.66,11.47c-6.33,2.37-18.05-11.47-25.25-9.3c0,0-12.457,11.939-24.727,9.979
						c-6.8-1.08-6.443-21.119-0.673-43.909c18.73-16.47,31.26-30.36,31.26-30.36l36.92,2.7c-6.54,15.32-3.06,39.37-1.83,40.56
						c1.24,1.19,36.42,6.19,36.42,6.19C195.94,293.68,210.05,297.33,216.52,301.22z"/>
					<path style="opacity:0.4;fill:#06b6d4;" d="M92.08,336.56c-3.49,6.38-13.29,8.05-20.21,15.52
						c-7.08,7.63-27.57,32.32-38.98,46.14c6.04-17.01,27.71-33.21,31.3-38.76c4.74-7.35,0-15.34,8.44-15.29
						c8.44,0.04,19.41-7.63,19.41-7.63C92.05,336.55,92.07,336.55,92.08,336.56z"/>
				</g>
				<path style="fill:none;stroke:#263238;stroke-linecap:round;stroke-linejoin:round;stroke-miterlimit:10;" d="M24.986,407.811
					c0,0,36.879-44.933,46.882-55.729c7.265-7.84,17.692-9.29,20.682-16.495c0,0,20.853-1.98,32.07-6.032
					c11.217-4.052,27.753-11.576,39.364-13.061c11.611-1.485,16.726-3.703,23.27-3.396c6.545,0.308,31.481,2.087,31.481,2.087
					c2.311-4.472,4.675-8.134-0.152-12.489s-21.89-9.2-28.568-7.639c0,0-35.174-5.001-36.412-6.188
					c-1.238-1.187-4.715-25.242,1.827-40.559l-36.926-2.696c0,0-53.628,59.439-104.841,78.217"/>
			</g>
			<g>
				<path style="fill:#FFFFFF;" d="M130.543,222.816c0,0,34.022-28.068,35.868-28.661c1.846-0.592,10.022-2.836,17.934-4.682
					c7.912-1.846,14.242-3.165,20.308,0c6.066,3.165,19.516,6.33,19.516,6.33s1.714,6.264-4.418,8.44
					c-6.132,2.176-24.132,0.396-24.132,0.396s-12.462,5.934-19.978,7.319c0,0-16.22,17.202-16.22,24.322"/>
				<path style="opacity:0.4;fill:#06b6d4;" d="M224.32,198.79c-0.24,1.92-1.27,4.28-4.57,5.45c-6.13,2.18-24.13,0.4-24.13,0.4
					s-12.46,5.93-19.98,7.32c0,0-11.35,12.04-15.06,20.14c-9.61-2.13-16.61-3.69-16.61-3.69s17.8-19.76,18.19-19.96
					c0.4-0.2,4.55-1.78,9.33-2.18c4.77-0.39,13.8-5.28,13.8-5.28s7.34-2.83,11.89-2.23c4.55,0.59,15.03,2.57,21.36,2.17
					C221.52,200.75,223.29,199.77,224.32,198.79z"/>
				<path style="fill:none;stroke:#263238;stroke-linecap:round;stroke-linejoin:round;stroke-miterlimit:10;" d="M130.543,222.816
					c0,0,34.022-28.068,35.868-28.661c1.846-0.592,10.022-2.836,17.934-4.682c7.912-1.846,14.242-3.165,20.308,0
					c6.066,3.165,19.516,6.33,19.516,6.33s1.714,6.264-4.418,8.44c-6.132,2.176-24.132,0.396-24.132,0.396
					s-12.462,5.934-19.978,7.319c0,0-16.22,17.202-16.22,24.322"/>
				<path style="fill:none;stroke:#263238;stroke-linecap:round;stroke-linejoin:round;stroke-miterlimit:10;" d="M195.62,204.637
					c0,0-2.835-0.132-4.154-2.374"/>
				<path style="fill:none;stroke:#263238;stroke-linecap:round;stroke-linejoin:round;stroke-miterlimit:10;" d="M175.642,211.956
					c0,0-5.67,0.462-8.308-2.571"/>
			</g>
			<g>
				<path style="fill:#FFFFFF;" d="M470.534,421.077c0,0-35.311-48.879-44.571-60.319c-6.725-8.308-17.033-10.451-19.535-17.839
					c0,0-20.674-3.367-31.596-8.159c-10.922-4.792-26.919-13.402-38.405-15.659c-11.486-2.256-16.441-4.811-22.992-4.941
					c-6.551-0.13-31.55-0.019-31.55-0.019c-2.008-4.617-4.122-8.428,0.986-12.451s22.456-7.719,29.014-5.716
					c0,0,35.429-2.642,36.744-3.744c1.314-1.102,6.389-24.871,0.884-40.59l37.023-0.225c0,0,51.021,64.97,100.867,87.123
					C487.403,338.539,490.457,394.033,470.534,421.077z"/>
				<g>
					<path style="opacity:0.4;fill:#06b6d4;" d="M407.04,326.71c-12.26,1.96-23.41-14.81-23.41-14.81
						c-7.19-2.17-18.92,11.67-25.25,9.3c-6.33-2.38-13.65-11.47-13.65-11.47s-20.76-1.19-27.49-2.38
						c-4.76-0.84-24.81-2.88-36.1-3.99c0.45-0.55,1.02-1.11,1.73-1.67c5.11-4.02,22.46-7.72,29.01-5.72c0,0,35.43-2.64,36.75-3.74
						c1.31-1.1,6.39-24.87,0.88-40.59l37.03-0.22c0,0,8.61,10.95,22.2,25.4C414.84,299.92,413.96,325.61,407.04,326.71z"/>
					<path style="opacity:0.4;fill:#06b6d4;" d="M464.51,412.76c-10.51-14.47-31.69-43.52-38.55-52
						c-6.72-8.31-17.03-10.45-19.53-17.84c0,0-7.07-1.15-15.13-3.06c5.54,0.12,10.32-0.2,12.94-1.32c0,0,10.98,7.67,19.42,7.63
						c8.44-0.05,3.69,7.94,8.44,15.29C436.57,368.37,469.11,391.84,464.51,412.76z"/>
				</g>
				<path style="fill:none;stroke:#263238;stroke-linecap:round;stroke-linejoin:round;stroke-miterlimit:10;" d="M470.534,421.077
					c0,0-35.311-48.879-44.571-60.319c-6.725-8.308-17.033-10.451-19.535-17.839c0,0-20.674-3.367-31.596-8.159
					c-10.922-4.792-26.919-13.402-38.405-15.659c-11.486-2.256-16.441-4.811-22.992-4.941c-6.551-0.13-31.55-0.019-31.55-0.019
					c-2.008-4.617-4.122-8.428,0.986-12.451s22.456-7.719,29.014-5.716c0,0,35.429-2.642,36.744-3.744
					c1.314-1.102,6.389-24.871,0.884-40.59l37.023-0.225c0,0,51.021,64.97,100.867,87.123"/>
			</g>
			<g>
				<path style="fill:#FFFFFF;" d="M375.721,227.816c0,0-34.022-28.068-35.868-28.661c-1.846-0.592-10.022-2.836-17.934-4.682
					c-7.912-1.846-14.242-3.165-20.308,0c-6.066,3.165-19.516,6.33-19.516,6.33s-1.714,6.264,4.418,8.44
					c6.132,2.176,24.132,0.396,24.132,0.396s12.462,5.934,19.978,7.319c0,0,16.22,17.202,16.22,24.322"/>
				<path style="opacity:0.4;fill:#06b6d4;" d="M373.75,228.74l-26.91,12.54c0-7.12-16.22-24.32-16.22-24.32
					c-7.51-1.39-19.98-7.32-19.98-7.32s-18,1.78-24.13-0.4c-2.4-0.85-3.6-2.33-4.17-3.82c1.89,1.25,5.3,2.5,11.07,1.84
					c10.38-1.18,18.25-5.45,20.55-5c2.29,0.45,2.89,4.01,2.89,4.01s17.4,6.94,21.16,5.65c3.76-1.29,18.2,6.63,18.2,6.63
					S365.67,224.91,373.75,228.74z"/>
				<path style="fill:none;stroke:#263238;stroke-linecap:round;stroke-linejoin:round;stroke-miterlimit:10;" d="M375.721,227.816
					c0,0-34.022-28.068-35.868-28.661c-1.846-0.592-10.022-2.836-17.934-4.682c-7.912-1.846-14.242-3.165-20.308,0
					c-6.066,3.165-19.516,6.33-19.516,6.33s-1.714,6.264,4.418,8.44c6.132,2.176,24.132,0.396,24.132,0.396
					s12.462,5.934,19.978,7.319c0,0,16.22,17.202,16.22,24.322"/>
				<path style="fill:none;stroke:#263238;stroke-linecap:round;stroke-linejoin:round;stroke-miterlimit:10;" d="M310.644,209.637
					c0,0,2.835-0.132,4.154-2.374"/>
				<path style="fill:none;stroke:#263238;stroke-linecap:round;stroke-linejoin:round;stroke-miterlimit:10;" d="M330.622,216.956
					c0,0,5.67,0.462,8.308-2.571"/>
			</g>
		</g>
		<g>
			<g>
				<defs>
					<path id="XMLID_901_" d="M318.308,298.542H175.692c-2.076,0-3.758-1.683-3.758-3.758v-81.488c0-2.076,1.683-3.758,3.758-3.758
						h142.615c2.076,0,3.758,1.683,3.758,3.758v81.488C322.066,296.859,320.383,298.542,318.308,298.542z"/>
				</defs>
				<use xlink:href="#XMLID_901_"  style="overflow:visible;fill:#06b6d4;"/>
				<clipPath id="XMLID_00000036238935691389049550000003289039117275563951_">
					<use xlink:href="#XMLID_901_"  style="overflow:visible;"/>
				</clipPath>
				<path style="opacity:0.3;clip-path:url(#XMLID_00000036238935691389049550000003289039117275563951_);fill-opacity:0.7;" d="
					M318.308,209.538H175.692c-2.076,0-3.758,1.683-3.758,3.758v81.488c0,2.076,1.683,3.758,3.758,3.758h142.615
					c2.076,0,3.758-1.683,3.758-3.758v-81.488C322.066,211.22,320.383,209.538,318.308,209.538z M317.604,292.687
					c0,1.704-1.382,3.086-3.086,3.086H179.482c-1.705,0-3.086-1.382-3.086-3.086v-77.619c0-1.704,1.382-3.086,3.086-3.086h135.036
					c1.704,0,3.086,1.382,3.086,3.086V292.687z"/>
				
					<rect x="171.934" y="229.425" style="clip-path:url(#XMLID_00000036238935691389049550000003289039117275563951_);fill:#263238;" width="150.132" height="64.006"/>
				
					<rect x="176.396" y="229.425" style="opacity:0.2;clip-path:url(#XMLID_00000036238935691389049550000003289039117275563951_);fill:#FFFFFF;" width="141.208" height="64.006"/>
				<path style="opacity:0.3;clip-path:url(#XMLID_00000036238935691389049550000003289039117275563951_);fill-opacity:0.7;" d="
					M185.29,295.77l2.24,2.77h-11.84c-2.07,0-3.76-1.68-3.76-3.76V217.9c0,0,10.26,1.3,12.21,2.35
					c1.96,1.06,16.95,24.06,18.85,33.63C204.89,263.44,185.29,295.77,185.29,295.77z"/>
				<path style="opacity:0.3;clip-path:url(#XMLID_00000036238935691389049550000003289039117275563951_);fill-opacity:0.7;" d="
					M320.19,230.7l-4.64,3.86c0,0-8.15,9.4-12.32,18.44l-0.05-0.54l-0.53-0.2c-0.01-0.09-0.02-0.18-0.04-0.27l0.46-0.33l-0.19-1.21
					l-0.53-0.18c-0.02-0.09-0.03-0.18-0.05-0.27l0.44-0.35l-0.25-1.21l-0.54-0.14c-0.02-0.09-0.05-0.18-0.07-0.28l0.42-0.37
					l-0.31-1.18l-0.54-0.12c-0.03-0.09-0.06-0.18-0.08-0.28l0.39-0.38l-0.37-1.17l-0.54-0.09c-0.04-0.09-0.07-0.18-0.1-0.28
					l0.38-0.4l-0.43-1.15l-0.55-0.06c-0.04-0.09-0.07-0.18-0.11-0.27l0.36-0.43l-0.49-1.12l-0.55-0.04
					c-0.04-0.08-0.08-0.17-0.12-0.26l0.33-0.44l-0.54-1.1l-0.56-0.01c-0.04-0.08-0.09-0.17-0.13-0.25l0.31-0.46l-0.6-1.07
					l-0.56,0.02c-0.04-0.08-0.09-0.16-0.14-0.25l0.29-0.47l-0.65-1.04l-0.56,0.05c-0.05-0.08-0.1-0.16-0.15-0.24l0.26-0.49
					l-0.7-1.01l-0.56,0.08c-0.05-0.07-0.11-0.15-0.16-0.23l0.23-0.5l-0.75-0.97l-0.55,0.11c-0.06-0.07-0.11-0.15-0.17-0.23
					l0.21-0.51l-0.8-0.93l-0.55,0.14c-0.06-0.07-0.12-0.14-0.19-0.21l0.19-0.53l-0.85-0.89l-0.53,0.16
					c-0.07-0.06-0.14-0.13-0.2-0.19l0.16-0.54l-0.89-0.84l-0.52,0.18c-0.08-0.06-0.15-0.12-0.22-0.18l0.13-0.55l-0.93-0.8
					l-0.51,0.22c-0.08-0.06-0.15-0.12-0.23-0.18l0.11-0.55l-0.97-0.75l-0.5,0.24c-0.08-0.06-0.16-0.11-0.23-0.16l0.07-0.56l-1-0.7
					l-0.49,0.27c-0.08-0.06-0.16-0.11-0.24-0.16l0.05-0.56l-1.05-0.64l-0.47,0.29c-0.08-0.05-0.17-0.1-0.25-0.15l0.02-0.55
					l-1.07-0.6l-0.46,0.31c-0.08-0.04-0.17-0.08-0.25-0.13l-0.01-0.55l-1.1-0.54l-0.44,0.33c-0.09-0.04-0.18-0.08-0.27-0.12
					l-0.03-0.55l-1.13-0.49l-0.42,0.36c-0.09-0.04-0.18-0.07-0.27-0.1l-0.06-0.56l-1.16-0.42l-0.4,0.38
					c-0.09-0.04-0.18-0.07-0.27-0.1l-0.09-0.54l-1.18-0.37l-0.38,0.4c-0.09-0.03-0.19-0.06-0.28-0.08l-0.12-0.54l-1.18-0.31
					l-0.37,0.42c-0.09-0.02-0.19-0.05-0.28-0.07l-0.15-0.54l-1.2-0.24l-0.35,0.44c-0.09-0.02-0.18-0.04-0.27-0.05l-0.18-0.53
					l-1.21-0.19l-0.33,0.46c-0.09-0.01-0.18-0.03-0.28-0.04l-0.2-0.52l-1.22-0.13l-0.3,0.48c-0.09-0.01-0.19-0.01-0.28-0.02
					l-0.23-0.52l-1.22-0.06l-0.29,0.49c-0.13,0-0.26,0-0.39-0.01l-0.26-0.5h-1.22l-0.26,0.51c-0.09,0-0.18,0-0.27,0.01l-0.29-0.5
					l-1.22,0.07l-0.23,0.52c-0.09,0.01-0.18,0.01-0.28,0.02l-0.3-0.48l-1.22,0.13l-0.2,0.53c-0.09,0.01-0.19,0.02-0.28,0.03
					l-0.33-0.45l-1.21,0.19l-0.17,0.53c-0.1,0.02-0.19,0.03-0.28,0.05l-0.35-0.44l-1.2,0.25l-0.15,0.54
					c-0.09,0.02-0.18,0.04-0.27,0.06l-0.37-0.41l-1.19,0.31l-0.12,0.54c-0.09,0.03-0.18,0.05-0.27,0.08l-0.39-0.4l-1.17,0.37
					l-0.09,0.55c-0.09,0.03-0.18,0.06-0.27,0.09l-0.41-0.37l-1.15,0.43l-0.06,0.55c-0.09,0.03-0.18,0.07-0.27,0.1l-0.42-0.35
					l-1.13,0.49l-0.03,0.55c-0.09,0.04-0.18,0.08-0.26,0.12l-0.45-0.33l-1.1,0.54v0.56c-0.09,0.04-0.17,0.08-0.26,0.13l-0.46-0.31
					l-1.07,0.6l0.03,0.55c-0.09,0.05-0.17,0.1-0.25,0.15l-0.48-0.29l-1.04,0.65l0.05,0.56c-0.08,0.05-0.16,0.1-0.24,0.15l-0.48-0.26
					l-1.01,0.7l0.08,0.56c-0.08,0.05-0.16,0.1-0.23,0.16l-0.5-0.24l-0.97,0.76l0.1,0.55c-0.07,0.06-0.15,0.11-0.22,0.17l-0.51-0.21
					l-0.93,0.8l0.13,0.54c-0.07,0.07-0.14,0.13-0.21,0.19l-0.52-0.18l-0.89,0.84l0.16,0.54c-0.07,0.06-0.13,0.13-0.2,0.2l-0.54-0.16
					l-0.84,0.89l0.19,0.52c-0.07,0.07-0.13,0.15-0.19,0.22l-0.54-0.14l-0.8,0.94l0.21,0.51c-0.06,0.07-0.11,0.15-0.17,0.22
					l-0.55-0.1l-0.76,0.97l0.24,0.5c-0.05,0.08-0.1,0.15-0.16,0.23l-0.56-0.08l-0.7,1.01l0.27,0.49c-0.05,0.08-0.1,0.16-0.15,0.24
					l-0.56-0.05l-0.65,1.04l0.29,0.48c-0.05,0.08-0.09,0.16-0.14,0.24l-0.56-0.02l-0.6,1.08l0.32,0.46
					c-0.05,0.08-0.09,0.17-0.13,0.25l-0.56,0.01l-0.54,1.1l0.33,0.44c-0.04,0.09-0.07,0.18-0.11,0.26l-0.56,0.04l-0.48,1.13
					l0.35,0.42c-0.03,0.09-0.07,0.18-0.1,0.27l-0.55,0.06l-0.43,1.15l0.38,0.41c-0.03,0.09-0.06,0.18-0.09,0.27l-0.55,0.09
					l-0.37,1.17l0.4,0.39c-0.03,0.09-0.05,0.18-0.08,0.27l-0.54,0.12l-0.31,1.19l0.42,0.37c-0.02,0.09-0.04,0.18-0.06,0.28
					l-0.54,0.14l-0.25,1.21l0.44,0.34c-0.02,0.1-0.03,0.19-0.05,0.28l-0.53,0.17l-0.19,1.22l0.46,0.33
					c-0.01,0.09-0.02,0.18-0.03,0.27l-0.53,0.2l-0.12,1.23l0.47,0.3c0,0.09-0.01,0.18-0.02,0.28l-0.51,0.22l-0.07,1.23l0.5,0.28
					c0,0.09-0.01,0.19-0.01,0.28l-0.51,0.25v1.23l0.51,0.26c0,0.13,0.01,0.26,0.01,0.39l-0.49,0.28l0.06,1.23l0.52,0.23
					c0.01,0.09,0.02,0.18,0.02,0.27l-0.47,0.31l0.13,1.22l0.52,0.2c0.01,0.09,0.03,0.18,0.04,0.28l-0.46,0.32l0.19,1.22l0.53,0.17
					c0.02,0.09,0.04,0.19,0.05,0.28l-0.44,0.35l0.26,1.2l0.53,0.14c0.03,0.09,0.05,0.19,0.07,0.28l-0.42,0.37l0.31,1.19l0.55,0.11
					c0.02,0.09,0.05,0.19,0.07,0.28l-0.39,0.39l0.37,1.17l0.55,0.09c0.03,0.09,0.06,0.18,0.09,0.27l-0.38,0.4l0.43,1.16l0.55,0.06
					c0.04,0.09,0.07,0.17,0.11,0.26l-0.36,0.43l0.49,1.13l0.56,0.03c0.04,0.09,0.07,0.17,0.11,0.26l-0.33,0.44l0.54,1.1l0.56,0.01
					c0.04,0.08,0.09,0.17,0.13,0.25l-0.31,0.46l0.6,1.08l0.56-0.03c0.05,0.08,0.09,0.17,0.14,0.25l-0.29,0.47l0.65,1.04l0.56-0.05
					c0.05,0.08,0.1,0.16,0.15,0.24l-0.26,0.49l0.71,1.01l0.55-0.08c0.06,0.07,0.11,0.15,0.16,0.23l-0.23,0.5l0.75,0.97l0.55-0.11
					c0.06,0.08,0.12,0.15,0.18,0.23l-0.22,0.51l0.81,0.93l0.54-0.14c0.06,0.08,0.12,0.15,0.19,0.22l-0.19,0.52l0.85,0.89l0.53-0.16
					c0.07,0.07,0.14,0.13,0.2,0.2l-0.16,0.53l0.89,0.85l0.53-0.19c0.07,0.06,0.14,0.12,0.21,0.19l-0.13,0.54l0.93,0.8l0.51-0.21
					c0.08,0.06,0.15,0.11,0.23,0.17l-0.11,0.55l0.97,0.75l0.5-0.24c0.08,0.06,0.16,0.11,0.24,0.17l-0.08,0.55l1.01,0.7l0.48-0.26
					c0.08,0.05,0.16,0.1,0.24,0.15l-0.05,0.56l1.05,0.65l0.47-0.29c0.08,0.05,0.17,0.09,0.25,0.14l-0.02,0.56l1.07,0.59l0.46-0.31
					c0.08,0.04,0.17,0.09,0.25,0.13l0.01,0.56l1.1,0.54l0.45-0.34c0.08,0.04,0.17,0.08,0.26,0.12l0.03,0.56l1.13,0.48l0.42-0.36
					c0.09,0.04,0.18,0.07,0.27,0.11l0.06,0.55l1.16,0.43l0.4-0.38c0.09,0.03,0.18,0.06,0.27,0.09l0.09,0.55l1.18,0.36l0.38-0.39
					c0.09,0.02,0.19,0.05,0.28,0.07l0.12,0.55l1.19,0.3l0.36-0.41c0.1,0.02,0.19,0.04,0.28,0.06l0.15,0.54l1.2,0.24l0.35-0.43
					c0.09,0.01,0.18,0.03,0.27,0.04l0.18,0.54l1.21,0.18l0.33-0.46c0.09,0.02,0.18,0.03,0.28,0.04l0.2,0.53l1.22,0.12l0.3-0.48
					c0.1,0.01,0.19,0.02,0.28,0.02l0.23,0.52l1.23,0.06l0.28-0.49c0.13,0,0.26,0.01,0.39,0.01l0.26,0.51l1.22-0.01l0.26-0.51h0.27
					l0.29,0.49l1.22-0.07l0.23-0.52c0.09,0,0.18-0.01,0.28-0.02l0.3,0.48l1.22-0.13l0.2-0.53c0.1-0.01,0.19-0.02,0.28-0.03
					l0.33,0.46l1.21-0.19l0.17-0.54c0.1-0.01,0.19-0.03,0.28-0.05l0.35,0.44l1.2-0.25l0.15-0.54c0.09-0.02,0.18-0.04,0.27-0.06
					l0.37,0.42l1.19-0.31l0.12-0.55c0.09-0.02,0.18-0.05,0.27-0.08l0.39,0.4l1.17-0.37l0.09-0.55c0.09-0.03,0.18-0.06,0.27-0.09
					l0.41,0.38l1.15-0.43l0.06-0.56c0.09-0.03,0.18-0.07,0.27-0.1l0.42,0.35l1.13-0.48l0.03-0.56c0.09-0.04,0.18-0.08,0.26-0.12
					l0.45,0.34l1.1-0.55v-0.55c0.09-0.05,0.17-0.09,0.26-0.13l0.46,0.31l1.07-0.6l-0.02-0.56c0.08-0.05,0.16-0.09,0.24-0.14
					l0.48,0.28l1.04-0.65l-0.05-0.55c0.08-0.06,0.16-0.1,0.24-0.16l0.49,0.27l1-0.71l-0.08-0.55c0.08-0.06,0.16-0.11,0.23-0.17
					l0.51,0.24l0.97-0.75l-0.11-0.55c0.07-0.06,0.15-0.12,0.22-0.18l0.51,0.21l0.93-0.8l-0.13-0.54c0.07-0.06,0.14-0.13,0.21-0.19
					l0.53,0.19l0.8-0.78l3.03,1.48l3.38-3.91l-2.01-2.93l0.19,0.03l0.7-1.01l-0.27-0.49c0.05-0.08,0.1-0.16,0.15-0.24l0.56,0.05
					l0.65-1.04l-0.29-0.47c0.05-0.09,0.1-0.17,0.14-0.25l0.56,0.02l0.6-1.07l-0.32-0.46c0.05-0.09,0.09-0.17,0.13-0.26h0.56
					l0.54-1.11l-0.33-0.44c0.04-0.09,0.08-0.17,0.11-0.26l0.56-0.03l0.48-1.13l-0.35-0.43c0.03-0.09,0.07-0.18,0.1-0.26l0.55-0.07
					l0.43-1.15l-0.38-0.4c0.03-0.1,0.06-0.19,0.09-0.28l0.55-0.09l0.16-0.51c2.14,11.66,8,26.58,8,26.58l-0.39,2.08l0.48,0.49h8.63
					c2.07,0,3.76-1.68,3.76-3.76v-63.84L320.19,230.7z M301.41,268.35l-0.01-0.01c0,0,0-0.01,0.01-0.02V268.35z"/>
				
					<use xlink:href="#XMLID_901_"  style="overflow:visible;fill:none;stroke:#263238;stroke-linecap:round;stroke-linejoin:round;stroke-miterlimit:10;"/>
			</g>
			<g>
				<defs>
					<path id="XMLID_899_" d="M202.99,205.78v3.76h-22.65v-3.76c0-0.6,0.49-1.09,1.09-1.09h20.47
						C202.5,204.69,202.99,205.18,202.99,205.78z"/>
				</defs>
				<use xlink:href="#XMLID_899_"  style="overflow:visible;fill:#999999;"/>
				<clipPath id="XMLID_00000139258576226864338170000001629508778220055698_">
					<use xlink:href="#XMLID_899_"  style="overflow:visible;"/>
				</clipPath>
				<path style="opacity:0.4;clip-path:url(#XMLID_00000139258576226864338170000001629508778220055698_);fill:#FFFFFF;" d="
					M202.99,205.78v0.49h-22.65v-0.49c0-0.6,0.49-1.09,1.09-1.09h20.47C202.5,204.69,202.99,205.18,202.99,205.78z"/>
				
					<use xlink:href="#XMLID_899_"  style="overflow:visible;fill:none;stroke:#263238;stroke-linecap:round;stroke-linejoin:round;stroke-miterlimit:10;"/>
			</g>
			<g>
				<defs>
					<path id="XMLID_900_" d="M224.32,207.27v2.27H206.2v-2.27l3.37-1v-1.35c0-0.56,0.46-1.02,1.02-1.02h9.34
						c0.56,0,1.02,0.46,1.02,1.02v1.35L224.32,207.27z"/>
				</defs>
				<use xlink:href="#XMLID_900_"  style="overflow:visible;fill:#999999;"/>
				<clipPath id="XMLID_00000111888720042909677100000001365148477745031810_">
					<use xlink:href="#XMLID_900_"  style="overflow:visible;"/>
				</clipPath>
				
					<polygon style="opacity:0.4;clip-path:url(#XMLID_00000111888720042909677100000001365148477745031810_);fill:#FFFFFF;" points="
					224.32,207.808 224.32,207.27 220.95,206.27 209.57,206.27 206.2,207.27 206.2,207.808 				"/>
				<path style="opacity:0.4;clip-path:url(#XMLID_00000111888720042909677100000001365148477745031810_);fill:#FFFFFF;" d="
					M220.95,204.92v0.17h-11.38v-0.17c0-0.56,0.46-1.02,1.02-1.02h9.34C220.49,203.9,220.95,204.36,220.95,204.92z"/>
				
					<use xlink:href="#XMLID_900_"  style="overflow:visible;fill:none;stroke:#263238;stroke-linecap:round;stroke-linejoin:round;stroke-miterlimit:10;"/>
			</g>
			
				<line style="fill:none;stroke:#263238;stroke-linecap:round;stroke-linejoin:round;stroke-miterlimit:10;" x1="209.574" y1="206.274" x2="220.947" y2="206.274"/>
			<g>
				<g>
					<polygon style="fill:#263238;" points="298.906,254.404 298.906,256.234 299.563,255.904 299.563,254.735 					"/>
					<polygon style="fill:#263238;" points="223.46,254.404 222.803,254.735 222.803,255.904 223.46,256.234 					"/>
					<polygon style="fill:#263238;" points="298.812,258.14 299.484,257.843 299.543,256.676 298.904,256.312 					"/>
					<polygon style="fill:#263238;" points="223.554,252.498 222.882,252.795 222.823,253.962 223.462,254.326 					"/>
					<polygon style="fill:#263238;" points="298.621,260.039 299.308,259.776 299.426,258.613 298.806,258.218 					"/>
					<polygon style="fill:#263238;" points="223.745,250.599 223.058,250.862 222.94,252.025 223.56,252.421 					"/>
					<polygon style="fill:#263238;" points="298.334,261.925 299.034,261.698 299.21,260.542 298.611,260.116 					"/>
					<polygon style="fill:#263238;" points="224.032,248.713 223.332,248.94 223.156,250.096 223.755,250.522 					"/>
					<polygon style="fill:#263238;" points="297.953,263.795 298.663,263.603 298.898,262.458 298.321,262.002 					"/>
					<polygon style="fill:#263238;" points="224.413,246.843 223.703,247.035 223.468,248.18 224.045,248.636 					"/>
					<polygon style="fill:#263238;" points="297.477,265.643 298.196,265.487 298.489,264.355 297.935,263.871 					"/>
					<polygon style="fill:#263238;" points="224.889,244.995 224.17,245.151 223.877,246.283 224.431,246.767 					"/>
					<polygon style="fill:#263238;" points="296.909,267.465 297.635,267.345 297.984,266.23 297.456,265.718 					"/>
					<polygon style="fill:#263238;" points="225.457,243.173 224.731,243.293 224.382,244.408 224.91,244.92 					"/>
					<polygon style="fill:#263238;" points="296.249,269.255 296.98,269.172 297.385,268.076 296.884,267.538 					"/>
					<polygon style="fill:#263238;" points="226.117,241.383 225.386,241.465 224.981,242.562 225.482,243.1 					"/>
					<polygon style="fill:#263238;" points="295.5,271.01 296.234,270.965 296.694,269.89 296.221,269.327 					"/>
					<polygon style="fill:#263238;" points="226.866,239.628 226.132,239.674 225.672,240.748 226.145,241.311 					"/>
					<polygon style="fill:#263238;" points="294.663,272.725 295.398,272.716 295.912,271.667 295.468,271.081 					"/>
					<polygon style="fill:#263238;" points="227.703,237.913 226.968,237.922 226.454,238.972 226.898,239.557 					"/>
					<polygon style="fill:#263238;" points="293.74,274.395 294.475,274.424 295.041,273.401 294.627,272.794 					"/>
					<polygon style="fill:#263238;" points="228.626,236.243 227.891,236.214 227.325,237.237 227.739,237.844 					"/>
					<polygon style="fill:#263238;" points="292.734,276.017 293.467,276.082 294.084,275.09 293.701,274.462 					"/>
					<polygon style="fill:#263238;" points="229.632,234.622 228.899,234.556 228.282,235.548 228.665,236.176 					"/>
					<polygon style="fill:#263238;" points="291.648,277.585 292.376,277.688 293.042,276.728 292.692,276.081 					"/>
					<polygon style="fill:#263238;" points="230.718,233.053 229.99,232.95 229.324,233.91 229.674,234.557 					"/>
					<polygon style="fill:#263238;" points="290.483,279.097 291.205,279.236 291.919,278.311 291.602,277.648 					"/>
					<polygon style="fill:#263238;" points="231.883,231.541 231.161,231.402 230.447,232.327 230.764,232.99 					"/>
					<polygon style="fill:#263238;" points="289.244,280.547 289.958,280.723 290.718,279.835 290.434,279.157 					"/>
					<polygon style="fill:#263238;" points="233.122,230.091 232.408,229.915 231.648,230.803 231.932,231.481 					"/>
					<polygon style="fill:#263238;" points="287.932,281.934 288.637,282.146 289.441,281.297 289.192,280.605 					"/>
					<polygon style="fill:#263238;" points="234.434,228.704 233.729,228.493 232.925,229.341 233.174,230.033 					"/>
					<polygon style="fill:#263238;" points="286.553,283.252 287.245,283.499 288.091,282.692 287.878,281.989 					"/>
					<polygon style="fill:#263238;" points="235.813,227.386 235.121,227.139 234.275,227.946 234.488,228.649 					"/>
					<polygon style="fill:#263238;" points="285.108,284.499 285.787,284.781 286.673,284.018 286.495,283.304 					"/>
					<polygon style="fill:#263238;" points="237.258,226.139 236.579,225.857 235.693,226.62 235.871,227.334 					"/>
					<polygon style="fill:#263238;" points="283.602,285.671 284.267,285.987 285.19,285.27 285.048,284.548 					"/>
					<polygon style="fill:#263238;" points="238.764,224.967 238.099,224.651 237.176,225.368 237.318,226.09 					"/>
					<polygon style="fill:#263238;" points="282.039,286.766 282.687,287.114 283.645,286.445 283.54,285.717 					"/>
					<polygon style="fill:#263238;" points="240.327,223.872 239.679,223.524 238.721,224.193 238.826,224.921 					"/>
					<polygon style="fill:#263238;" points="280.423,287.78 281.052,288.161 282.043,287.541 281.975,286.808 					"/>
					<polygon style="fill:#263238;" points="241.943,222.858 241.314,222.477 240.323,223.097 240.391,223.83 					"/>
					<polygon style="fill:#263238;" points="278.757,288.711 279.366,289.123 280.387,288.554 280.356,287.819 					"/>
					<polygon style="fill:#263238;" points="243.609,221.927 243,221.515 241.979,222.084 242.01,222.819 					"/>
					<polygon style="fill:#263238;" points="277.634,289.999 278.682,289.482 278.689,288.747 277.047,289.557 					"/>
					<polygon style="fill:#263238;" points="244.732,220.639 243.684,221.156 243.677,221.891 245.319,221.081 					"/>
					<polygon style="fill:#263238;" points="275.86,290.787 276.933,290.323 276.977,289.589 275.296,290.315 					"/>
					<polygon style="fill:#263238;" points="246.506,219.852 245.433,220.315 245.39,221.049 247.07,220.323 					"/>
					<polygon style="fill:#263238;" points="274.048,291.483 275.143,291.075 275.224,290.344 273.509,290.983 					"/>
					<polygon style="fill:#263238;" points="248.318,219.155 247.223,219.563 247.142,220.294 248.857,219.655 					"/>
					<polygon style="fill:#263238;" points="272.203,292.087 273.318,291.735 273.435,291.009 271.69,291.561 					"/>
					<polygon style="fill:#263238;" points="250.163,218.551 249.048,218.903 248.931,219.629 250.676,219.077 					"/>
					<polygon style="fill:#263238;" points="270.331,292.598 271.461,292.302 271.615,291.582 269.844,292.046 					"/>
					<polygon style="fill:#263238;" points="252.035,218.041 250.905,218.336 250.751,219.056 252.522,218.592 					"/>
					<polygon style="fill:#263238;" points="268.434,293.012 269.579,292.774 269.769,292.064 267.977,292.437 					"/>
					<polygon style="fill:#263238;" points="253.932,217.626 252.787,217.864 252.597,218.575 254.389,218.202 					"/>
					<polygon style="fill:#263238;" points="266.52,293.331 267.675,293.151 267.9,292.451 266.092,292.733 					"/>
					<polygon style="fill:#263238;" points="255.846,217.307 254.691,217.488 254.466,218.188 256.275,217.906 					"/>
					<polygon style="fill:#263238;" points="264.591,293.552 265.754,293.43 266.014,292.743 264.194,292.933 					"/>
					<polygon style="fill:#263238;" points="257.775,217.086 256.612,217.208 256.352,217.895 258.172,217.705 					"/>
					<polygon style="fill:#263238;" points="262.654,293.675 263.821,293.613 264.116,292.939 262.289,293.037 					"/>
					<polygon style="fill:#263238;" points="259.712,216.963 258.545,217.025 258.25,217.699 260.077,217.601 					"/>
					<polygon style="fill:#263238;" points="260.713,293.701 261.882,293.697 262.211,293.039 260.38,293.045 					"/>
					<polygon style="fill:#263238;" points="261.653,216.938 260.484,216.941 260.155,217.599 261.986,217.593 					"/>
					<polygon style="fill:#263238;" points="263.707,217.018 262.539,216.959 262.176,217.598 264.004,217.69 					"/>
					<polygon style="fill:#263238;" points="258.659,293.62 259.827,293.679 260.19,293.04 258.362,292.948 					"/>
					<polygon style="fill:#263238;" points="265.64,217.194 264.477,217.076 264.082,217.696 265.903,217.881 					"/>
					<polygon style="fill:#263238;" points="256.726,293.444 257.889,293.562 258.284,292.942 256.463,292.757 					"/>
					<polygon style="fill:#263238;" points="267.562,217.468 266.406,217.292 265.98,217.891 267.789,218.168 					"/>
					<polygon style="fill:#263238;" points="254.804,293.17 255.96,293.346 256.386,292.747 254.577,292.47 					"/>
					<polygon style="fill:#263238;" points="269.467,217.839 268.322,217.604 267.866,218.181 269.659,218.549 					"/>
					<polygon style="fill:#263238;" points="252.899,292.799 254.044,293.034 254.5,292.457 252.707,292.089 					"/>
					<polygon style="fill:#263238;" points="271.351,218.306 270.219,218.014 269.735,218.567 271.507,219.025 					"/>
					<polygon style="fill:#263238;" points="251.015,292.332 252.147,292.625 252.631,292.071 250.859,291.613 					"/>
					<polygon style="fill:#263238;" points="273.209,218.867 272.094,218.518 271.582,219.046 273.329,219.593 					"/>
					<polygon style="fill:#263238;" points="249.157,291.771 250.272,292.12 250.784,291.592 249.037,291.045 					"/>
					<polygon style="fill:#263238;" points="275.036,219.522 273.94,219.117 273.402,219.618 275.119,220.253 					"/>
					<polygon style="fill:#263238;" points="247.329,291.116 248.426,291.522 248.964,291.02 247.247,290.385 					"/>
					<polygon style="fill:#263238;" points="276.828,220.268 275.754,219.808 275.191,220.281 276.874,221.002 					"/>
					<polygon style="fill:#263238;" points="245.538,290.37 246.612,290.83 247.175,290.357 245.492,289.636 					"/>
					<polygon style="fill:#263238;" points="278.58,221.104 277.53,220.59 276.945,221.034 278.589,221.839 					"/>
					<polygon style="fill:#263238;" points="243.786,289.534 244.836,290.048 245.421,289.604 243.777,288.799 					"/>
					<polygon style="fill:#263238;" points="280.288,222.027 279.265,221.461 278.658,221.875 280.259,222.762 					"/>
					<polygon style="fill:#263238;" points="242.078,288.611 243.101,289.177 243.708,288.763 242.107,287.876 					"/>
					<polygon style="fill:#263238;" points="281.946,223.035 280.954,222.418 280.326,222.801 281.88,223.768 					"/>
					<polygon style="fill:#263238;" points="240.42,287.603 241.412,288.22 242.04,287.837 240.486,286.87 					"/>
					<polygon style="fill:#263238;" points="283.449,224.854 283.552,224.126 282.592,223.46 281.945,223.81 					"/>
					<polygon style="fill:#263238;" points="238.917,285.784 238.814,286.512 239.774,287.178 240.421,286.828 					"/>
					<polygon style="fill:#263238;" points="284.961,226.019 285.1,225.297 284.175,224.583 283.512,224.9 					"/>
					<polygon style="fill:#263238;" points="237.405,284.619 237.266,285.341 238.191,286.056 238.854,285.738 					"/>
					<polygon style="fill:#263238;" points="286.411,227.258 286.587,226.544 285.699,225.784 285.021,226.068 					"/>
					<polygon style="fill:#263238;" points="235.955,283.38 235.779,284.094 236.667,284.854 237.345,284.57 					"/>
					<polygon style="fill:#263238;" points="287.798,228.57 288.009,227.865 287.161,227.061 286.469,227.311 					"/>
					<polygon style="fill:#263238;" points="234.568,282.068 234.357,282.773 235.205,283.577 235.897,283.328 					"/>
					<polygon style="fill:#263238;" points="289.116,229.949 289.363,229.257 288.556,228.411 287.853,228.625 					"/>
					<polygon style="fill:#263238;" points="233.25,280.689 233.003,281.381 233.81,282.227 234.513,282.013 					"/>
					<polygon style="fill:#263238;" points="290.363,231.394 290.645,230.715 289.882,229.829 289.168,230.007 					"/>
					<polygon style="fill:#263238;" points="232.003,279.244 231.721,279.923 232.484,280.809 233.198,280.631 					"/>
					<polygon style="fill:#263238;" points="291.535,232.9 291.851,232.235 291.134,231.312 290.412,231.454 					"/>
					<polygon style="fill:#263238;" points="230.831,277.738 230.515,278.403 231.232,279.326 231.954,279.184 					"/>
					<polygon style="fill:#263238;" points="292.629,234.463 292.978,233.815 292.309,232.857 291.581,232.962 					"/>
					<polygon style="fill:#263238;" points="229.737,276.175 229.388,276.823 230.057,277.781 230.785,277.676 					"/>
					<polygon style="fill:#263238;" points="293.644,236.079 294.025,235.45 293.405,234.459 292.672,234.527 					"/>
					<polygon style="fill:#263238;" points="228.722,274.559 228.341,275.188 228.961,276.179 229.694,276.111 					"/>
					<polygon style="fill:#263238;" points="294.575,237.745 294.987,237.136 294.418,236.115 293.683,236.146 					"/>
					<polygon style="fill:#263238;" points="227.791,272.893 227.379,273.502 227.948,274.523 228.683,274.492 					"/>
					<polygon style="fill:#263238;" points="295.421,239.455 295.863,238.868 295.346,237.82 294.611,237.813 					"/>
					<polygon style="fill:#263238;" points="226.945,271.183 226.503,271.77 227.02,272.819 227.755,272.825 					"/>
					<polygon style="fill:#263238;" points="296.179,241.206 296.651,240.642 296.187,239.569 295.453,239.526 					"/>
					<polygon style="fill:#263238;" points="226.187,269.432 225.715,269.996 226.179,271.069 226.913,271.112 					"/>
					<polygon style="fill:#263238;" points="296.848,242.993 297.347,242.454 296.939,241.359 296.208,241.278 					"/>
					<polygon style="fill:#263238;" points="225.519,267.645 225.019,268.184 225.427,269.279 226.158,269.36 					"/>
					<polygon style="fill:#263238;" points="297.425,244.812 297.951,244.299 297.599,243.184 296.873,243.067 					"/>
					<polygon style="fill:#263238;" points="224.941,265.826 224.415,266.34 224.767,267.454 225.493,267.571 					"/>
					<polygon style="fill:#263238;" points="297.91,246.658 298.461,246.171 298.166,245.041 297.447,244.887 					"/>
					<polygon style="fill:#263238;" points="224.456,263.98 223.905,264.467 224.201,265.598 224.92,265.751 					"/>
					<polygon style="fill:#263238;" points="298.301,248.525 298.876,248.068 298.638,246.923 297.927,246.733 					"/>
					<polygon style="fill:#263238;" points="224.065,262.113 223.49,262.57 223.728,263.715 224.439,263.905 					"/>
					<polygon style="fill:#263238;" points="298.597,250.411 299.195,249.982 299.014,248.827 298.314,248.602 					"/>
					<polygon style="fill:#263238;" points="223.77,260.228 223.171,260.656 223.352,261.811 224.052,262.036 					"/>
					<polygon style="fill:#263238;" points="298.797,252.308 299.416,251.911 299.294,250.748 298.607,250.488 					"/>
					<polygon style="fill:#263238;" points="223.569,258.33 222.95,258.727 223.072,259.89 223.759,260.151 					"/>
					<polygon style="fill:#263238;" points="298.901,254.214 299.539,253.848 299.477,252.681 298.803,252.386 					"/>
					<polygon style="fill:#263238;" points="223.465,256.425 222.827,256.79 222.889,257.957 223.563,258.253 					"/>
				</g>
				
					<ellipse transform="matrix(0.2392 -0.971 0.971 0.2392 -49.2089 447.832)" style="fill:#999999;stroke:#263238;stroke-linecap:round;stroke-linejoin:round;stroke-miterlimit:10;" cx="261.183" cy="255.319" rx="37.542" ry="37.542"/>
				
					<ellipse transform="matrix(0.2394 -0.9709 0.9709 0.2394 -49.2446 447.7743)" style="fill:#BFBFBF;stroke:#263238;stroke-linecap:round;stroke-linejoin:round;stroke-miterlimit:10;" cx="261.183" cy="255.319" rx="35.839" ry="35.839"/>
				
					<ellipse transform="matrix(0.1653 -0.9862 0.9862 0.1653 -33.8055 470.6935)" style="opacity:0.3;fill-opacity:0.7;" cx="261.183" cy="255.319" rx="30.313" ry="30.313"/>
				
					<ellipse transform="matrix(0.2482 -0.9687 0.9687 0.2482 -50.967 444.968)" style="fill:#BFBFBF;stroke:#263238;stroke-linecap:round;stroke-linejoin:round;stroke-miterlimit:10;" cx="261.183" cy="255.319" rx="28.426" ry="28.426"/>
				
					<ellipse transform="matrix(0.2409 -0.9705 0.9705 0.2409 -49.5376 447.3009)" style="fill:#757575;stroke:#263238;stroke-linecap:round;stroke-linejoin:round;stroke-miterlimit:10;" cx="261.183" cy="255.319" rx="21.961" ry="21.961"/>
				<g>
					<polygon style="fill:#BFBFBF;stroke:#263238;stroke-linecap:round;stroke-linejoin:round;stroke-miterlimit:10;" points="
						294.108,280.444 290.897,284.169 287.755,282.637 292.128,277.562 					"/>
				</g>
				<g style="opacity:0.3;">
					<g>
						<path d="M248.235,231.574l0.268,0.455l0.405,2.902l0.97-0.572l0.274,0.464l-1.494,0.882l-0.269-0.455l-0.405-2.902
							l-0.924,0.545l-0.273-0.464L248.235,231.574z"/>
						<path d="M249.103,232.129c-0.262-0.545-0.124-0.994,0.401-1.247c0.525-0.252,0.962-0.079,1.224,0.466l0.851,1.771
							c0.262,0.545,0.124,0.995-0.401,1.248c-0.525,0.251-0.961,0.078-1.224-0.466L249.103,232.129z M250.506,233.678
							c0.116,0.243,0.268,0.284,0.438,0.203c0.17-0.083,0.233-0.226,0.116-0.469l-0.884-1.84c-0.117-0.243-0.268-0.284-0.438-0.202
							c-0.171,0.082-0.233,0.226-0.116,0.469L250.506,233.678z"/>
						<path d="M251.207,231.15c-0.211-0.565-0.034-1,0.511-1.204c0.546-0.204,0.964,0.008,1.176,0.574l0.688,1.838
							c0.212,0.566,0.034,1-0.511,1.205c-0.546,0.204-0.965-0.008-1.176-0.574L251.207,231.15z M252.463,232.817
							c0.095,0.253,0.242,0.307,0.418,0.241c0.178-0.067,0.252-0.204,0.158-0.457l-0.715-1.909
							c-0.094-0.253-0.241-0.307-0.418-0.241c-0.176,0.067-0.251,0.205-0.157,0.456L252.463,232.817z"/>
						<path d="M255.069,231.74l0.011-0.003l-0.287-2.694l0.798-0.208l0.95,3.655l-0.543,0.14l-0.681-2.621l-0.011,0.003l0.294,2.721
							l-0.543,0.141l-1.089-2.476l-0.01,0.003l0.671,2.585l-0.501,0.13l-0.949-3.654l0.799-0.207L255.069,231.74z"/>
						<path d="M257.206,228.563l0.59-0.072l0.392,3.216l0.97-0.117l0.065,0.536l-1.561,0.189L257.206,228.563z"/>
						<path d="M259.9,229.91l0.813-0.033l0.022,0.538l-0.813,0.033l0.045,1.104l1.023-0.042l0.022,0.538l-1.615,0.066l-0.154-3.768
							l1.614-0.066l0.022,0.538l-1.022,0.042L259.9,229.91z"/>
						<path d="M261.965,229.34h-0.01l-0.127,2.727l-0.532-0.024l0.174-3.765l0.743,0.034l0.492,2.281l0.011-0.001l0.104-2.253
							l0.526,0.024l-0.174,3.766l-0.607-0.029L261.965,229.34z"/>
						<path d="M264.839,228.497c0.571,0.077,0.817,0.458,0.737,1.057l-0.016,0.117l-0.556-0.076l0.021-0.154
							c0.036-0.267-0.057-0.383-0.243-0.408c-0.186-0.025-0.308,0.061-0.344,0.329c-0.037,0.271,0.053,0.49,0.392,0.879
							c0.433,0.499,0.546,0.83,0.487,1.256c-0.08,0.599-0.426,0.9-1.003,0.821c-0.576-0.078-0.829-0.461-0.748-1.059l0.031-0.229
							l0.556,0.075l-0.036,0.267c-0.037,0.267,0.067,0.378,0.255,0.404c0.186,0.025,0.317-0.055,0.353-0.322
							c0.037-0.271-0.053-0.491-0.392-0.879c-0.433-0.499-0.546-0.831-0.487-1.257C263.927,228.72,264.268,228.419,264.839,228.497z
							"/>
						<path d="M267.816,233.074c-0.572-0.169-0.789-0.593-0.616-1.172l0.083-0.284c0.103-0.347,0.285-0.579,0.575-0.645l0.003-0.011
							c-0.199-0.2-0.243-0.471-0.137-0.827l0.034-0.113c0.172-0.579,0.586-0.816,1.159-0.645c0.573,0.17,0.79,0.596,0.617,1.173
							l-0.034,0.113c-0.105,0.356-0.295,0.559-0.566,0.619l-0.003,0.01c0.206,0.214,0.23,0.507,0.128,0.854l-0.084,0.285
							C268.804,233.009,268.391,233.246,267.816,233.074z M267.971,232.559c0.182,0.054,0.342,0.005,0.441-0.313l0.101-0.336
							c0.084-0.283,0.003-0.442-0.199-0.503c-0.201-0.06-0.357,0.029-0.441,0.313l-0.101,0.336
							C267.677,232.376,267.79,232.504,267.971,232.559z M268.261,230.412c-0.086,0.291,0.021,0.423,0.206,0.479
							c0.181,0.053,0.349,0.003,0.435-0.287l0.06-0.201c0.096-0.326-0.018-0.455-0.198-0.509c-0.181-0.054-0.346-0.007-0.443,0.318
							L268.261,230.412z"/>
						<path d="M269.722,233.069l-0.198,0.538l-0.537-0.198l0.199-0.538L269.722,233.069z"/>
						<path d="M270.633,234.113c-0.547-0.242-0.707-0.691-0.463-1.244l0.12-0.271c0.146-0.331,0.356-0.538,0.652-0.565l0.005-0.01
							c-0.173-0.225-0.181-0.5-0.029-0.839l0.048-0.109c0.245-0.551,0.686-0.734,1.232-0.492c0.548,0.243,0.708,0.691,0.464,1.244
							l-0.049,0.108c-0.15,0.341-0.364,0.517-0.641,0.542l-0.005,0.009c0.178,0.239,0.165,0.534,0.018,0.864l-0.12,0.271
							C271.621,234.173,271.181,234.356,270.633,234.113z M270.852,233.621c0.171,0.076,0.337,0.049,0.478-0.254l0.143-0.32
							c0.12-0.273,0.059-0.441-0.133-0.525c-0.192-0.086-0.358-0.018-0.478,0.253l-0.143,0.321
							C270.583,233.401,270.68,233.544,270.852,233.621z M271.414,231.527c-0.122,0.276-0.033,0.422,0.143,0.501
							c0.173,0.076,0.346,0.046,0.468-0.23l0.085-0.192c0.138-0.311,0.042-0.454-0.13-0.531c-0.173-0.076-0.344-0.051-0.482,0.259
							L271.414,231.527z"/>
						<path d="M273.491,233.075l0.933,0.542l-0.271,0.466l-0.933-0.542L273.491,233.075z"/>
						<path d="M276.901,234.473c0.201-0.273,0.16-0.417,0.009-0.529c-0.152-0.113-0.308-0.1-0.469,0.116l-0.144,0.196l-0.451-0.333
							l0.122-0.165c0.358-0.486,0.806-0.584,1.274-0.239c0.469,0.346,0.506,0.802,0.148,1.289l-0.059,0.077
							c-0.239,0.326-0.491,0.448-0.79,0.375l-0.008,0.008c0.162,0.28,0.094,0.572-0.133,0.88l-0.176,0.239
							c-0.358,0.485-0.807,0.584-1.275,0.238c-0.469-0.345-0.507-0.802-0.148-1.288l0.186-0.251l0.451,0.333l-0.208,0.282
							c-0.16,0.216-0.125,0.37,0.026,0.481c0.152,0.111,0.302,0.108,0.5-0.16l0.177-0.239c0.208-0.282,0.189-0.456-0.028-0.617
							l-0.16-0.119l0.32-0.434l0.186,0.137c0.179,0.132,0.344,0.133,0.523-0.109L276.901,234.473z"/>
						<path d="M277.781,235.159c0.422-0.478,0.869-0.543,1.33-0.135c0.437,0.386,0.434,0.845,0.033,1.298l-0.064,0.072l-0.421-0.372
							l0.09-0.101c0.179-0.203,0.158-0.357,0.017-0.483c-0.157-0.139-0.314-0.141-0.554,0.129l-0.454,0.513l0.008,0.007
							c0.22-0.094,0.424-0.064,0.623,0.111c0.326,0.29,0.288,0.666-0.08,1.082l-0.457,0.517c-0.4,0.453-0.868,0.501-1.305,0.114
							c-0.437-0.386-0.445-0.855-0.046-1.309L277.781,235.159z M277.371,236.518l-0.45,0.509c-0.179,0.201-0.154,0.354-0.013,0.479
							c0.142,0.125,0.294,0.131,0.474-0.07l0.45-0.509c0.179-0.202,0.158-0.357,0.017-0.483
							C277.707,236.318,277.55,236.316,277.371,236.518z"/>
						<path d="M278.278,238.717l-0.405,0.402l-0.402-0.406l0.406-0.401L278.278,238.717z"/>
						<path d="M278.662,240.044c-0.393-0.451-0.35-0.925,0.105-1.322l0.223-0.194c0.272-0.238,0.55-0.337,0.829-0.238l0.009-0.006
							c-0.061-0.276,0.047-0.528,0.327-0.773l0.089-0.079c0.454-0.396,0.931-0.375,1.323,0.075c0.393,0.45,0.35,0.925-0.104,1.321
							l-0.09,0.077c-0.279,0.245-0.548,0.315-0.809,0.22l-0.008,0.008c0.06,0.289-0.076,0.552-0.348,0.789l-0.224,0.195
							C279.531,240.514,279.055,240.494,278.662,240.044z M279.068,239.689c0.124,0.142,0.284,0.187,0.54-0.029l0.264-0.23
							c0.223-0.194,0.239-0.373,0.101-0.531c-0.138-0.159-0.316-0.167-0.54,0.028l-0.264,0.23
							C278.918,239.377,278.944,239.547,279.068,239.689z M280.459,238.031c-0.227,0.199-0.208,0.369-0.08,0.515
							c0.124,0.142,0.293,0.188,0.52-0.011l0.158-0.138c0.256-0.224,0.23-0.394,0.105-0.536c-0.125-0.142-0.289-0.191-0.544,0.032
							L280.459,238.031z"/>
						<path d="M281.075,241.277l0.006,0.008l2.399-1.254l0.485,0.667l-3.049,2.22l-0.329-0.453l2.186-1.592l-0.006-0.009
							l-2.421,1.27l-0.33-0.453l1.901-1.919l-0.006-0.008l-2.155,1.571l-0.305-0.419l3.048-2.221l0.485,0.666L281.075,241.277z"/>
						<path d="M282.64,243.806l0.005,0.01l2.55-0.919l0.392,0.728l-3.326,1.788l-0.266-0.494l2.385-1.282l-0.005-0.01l-2.574,0.931
							l-0.266-0.493l2.147-1.646l-0.005-0.01l-2.353,1.265l-0.244-0.455l3.325-1.789l0.391,0.726L282.64,243.806z"/>
						<path d="M285.915,245.621c0.159,0.43,0.402,0.449,0.672,0.447l0.139,0.375l-3.541,1.313l-0.207-0.557l2.702-1.001l-0.16-0.431
							L285.915,245.621z"/>
						<path d="M284.095,248.761l-0.548,0.163l-0.163-0.547l0.548-0.163L284.095,248.761z M286.063,248.173l-0.548,0.163
							l-0.163-0.547l0.548-0.162L286.063,248.173z"/>
						<path d="M286.965,248.922c0.102,0.447,0.34,0.498,0.608,0.531l0.089,0.389l-3.682,0.837l-0.131-0.579l2.808-0.638
							l-0.102-0.447L286.965,248.922z"/>
						<path d="M284.751,251.774l-0.565,0.092l-0.091-0.563l0.563-0.093L284.751,251.774z"/>
						<path d="M284.289,253.089c-0.057-0.596,0.257-0.956,0.857-1.014l0.295-0.027c0.36-0.033,0.645,0.048,0.813,0.292l0.011-0.002
							c0.11-0.26,0.347-0.4,0.717-0.437l0.118-0.011c0.602-0.056,0.976,0.238,1.032,0.835c0.057,0.595-0.256,0.955-0.857,1.012
							l-0.118,0.011c-0.37,0.036-0.629-0.064-0.786-0.294l-0.011,0.002c-0.121,0.271-0.384,0.405-0.743,0.439l-0.296,0.026
							C284.721,253.98,284.346,253.685,284.289,253.089z M284.826,253.038c0.018,0.188,0.122,0.318,0.455,0.293l0.35-0.033
							c0.295-0.028,0.412-0.164,0.392-0.373c-0.02-0.21-0.16-0.321-0.455-0.293l-0.349,0.033
							C284.886,252.696,284.809,252.851,284.826,253.038z M286.926,252.503c-0.301,0.029-0.385,0.178-0.366,0.371
							c0.017,0.188,0.128,0.324,0.429,0.295l0.21-0.02c0.338-0.032,0.415-0.186,0.398-0.374c-0.018-0.189-0.123-0.324-0.461-0.292
							L286.926,252.503z"/>
						<path d="M286.598,255.094l-0.016,1.078l-0.538-0.008l0.016-1.077L286.598,255.094z"/>
						<path d="M287.524,258.516c0.022-0.188-0.065-0.317-0.333-0.35l-0.402-0.048l0.066-0.557l0.364,0.043
							c0.6,0.072,0.906,0.412,0.838,0.991c-0.069,0.578-0.447,0.837-1.047,0.766c-0.499-0.06-0.878-0.29-1.396-0.905
							c-0.334-0.394-0.498-0.511-0.697-0.534c-0.026-0.003-0.053-0.007-0.08-0.004l-0.133,1.113l-0.536-0.065l0.203-1.702
							l0.461,0.056c0.417,0.05,0.716,0.237,1.123,0.73c0.423,0.507,0.702,0.671,1.105,0.719
							C287.396,258.81,287.502,258.703,287.524,258.516z"/>
						<path d="M284.549,259.978l-0.561-0.105l0.104-0.563l0.563,0.105L284.549,259.978z"/>
						<path d="M283.669,261.079c0.148-0.579,0.563-0.813,1.148-0.665l0.287,0.074c0.35,0.089,0.59,0.261,0.667,0.548l0.01,0.002
							c0.192-0.207,0.462-0.261,0.822-0.169l0.114,0.028c0.585,0.149,0.838,0.553,0.691,1.133c-0.148,0.58-0.564,0.813-1.148,0.664
							l-0.115-0.029c-0.359-0.092-0.569-0.272-0.64-0.541l-0.011-0.002c-0.205,0.215-0.498,0.251-0.848,0.163l-0.287-0.074
							C283.773,262.063,283.521,261.659,283.669,261.079z M284.19,261.212c-0.046,0.184,0.008,0.341,0.33,0.428l0.34,0.088
							c0.287,0.072,0.443-0.016,0.495-0.219c0.051-0.204-0.043-0.356-0.33-0.429l-0.34-0.087
							C284.362,260.911,284.236,261.029,284.19,261.212z M286.346,261.415c-0.292-0.074-0.42,0.038-0.469,0.226
							c-0.046,0.183,0.013,0.349,0.305,0.422l0.203,0.053c0.33,0.084,0.454-0.036,0.501-0.218c0.046-0.183-0.007-0.346-0.335-0.43
							L286.346,261.415z"/>
						<path d="M266.471,280.208l-0.798,0.163l-0.108-0.527l0.798-0.164l-0.222-1.083l-1.004,0.205l-0.107-0.527l1.584-0.324
							l0.758,3.697l-1.584,0.324l-0.109-0.528l1.004-0.205L266.471,280.208z"/>
						<path d="M264.537,281.093l0.01-0.001l-0.309-2.713l0.53-0.061l0.427,3.748l-0.739,0.083l-0.849-2.175l-0.012,0.001
							l0.256,2.243l-0.525,0.06l-0.428-3.747l0.605-0.068L264.537,281.093z"/>
						<path d="M261.858,282.384c-0.576,0.015-0.881-0.323-0.897-0.927l-0.003-0.119l0.56-0.014l0.004,0.157
							c0.007,0.269,0.117,0.368,0.306,0.364c0.188-0.005,0.294-0.11,0.288-0.38c-0.008-0.275-0.132-0.477-0.527-0.807
							c-0.506-0.424-0.671-0.733-0.681-1.164c-0.016-0.603,0.278-0.956,0.86-0.97c0.582-0.015,0.893,0.322,0.906,0.927l0.007,0.232
							l-0.561,0.014l-0.006-0.27c-0.007-0.27-0.128-0.364-0.316-0.358c-0.188,0.004-0.305,0.104-0.298,0.374
							c0.007,0.274,0.13,0.476,0.526,0.806c0.506,0.425,0.67,0.734,0.682,1.164C262.724,282.019,262.435,282.37,261.858,282.384z"/>
						<path d="M258.189,278.334c0.593,0.079,0.874,0.463,0.795,1.061l-0.038,0.295c-0.048,0.358-0.189,0.616-0.466,0.727
							l-0.001,0.01c0.228,0.166,0.314,0.428,0.265,0.797l-0.016,0.116c-0.079,0.599-0.45,0.897-1.042,0.82
							c-0.594-0.078-0.874-0.463-0.795-1.062l0.015-0.118c0.049-0.368,0.204-0.598,0.462-0.7l0.001-0.01
							c-0.237-0.179-0.309-0.465-0.262-0.823l0.039-0.293C257.225,278.556,257.596,278.257,258.189,278.334z M258.17,281.034
							c0.039-0.301-0.086-0.414-0.278-0.439c-0.188-0.026-0.345,0.051-0.384,0.351l-0.027,0.208
							c-0.045,0.337,0.088,0.447,0.275,0.472c0.186,0.023,0.343-0.047,0.387-0.385L258.17,281.034z M258.118,278.868
							c-0.188-0.023-0.338,0.049-0.387,0.38l-0.046,0.347c-0.039,0.293,0.067,0.439,0.275,0.466
							c0.209,0.027,0.349-0.085,0.387-0.378l0.046-0.348C258.438,279.003,258.306,278.893,258.118,278.868z"/>
						<path d="M256.31,278.644l0.11-0.561l0.561,0.109l-0.11,0.56L256.31,278.644z"/>
						<path d="M255.251,277.76c0.578,0.152,0.809,0.57,0.655,1.153l-0.075,0.287c-0.092,0.349-0.266,0.588-0.554,0.663l-0.002,0.011
							c0.205,0.193,0.257,0.463,0.162,0.823l-0.029,0.114c-0.153,0.585-0.561,0.834-1.139,0.683
							c-0.579-0.152-0.809-0.569-0.656-1.154l0.03-0.114c0.095-0.36,0.278-0.568,0.547-0.637l0.003-0.011
							c-0.214-0.206-0.248-0.5-0.156-0.851l0.076-0.285C254.267,277.858,254.672,277.607,255.251,277.76z M254.893,280.436
							c0.077-0.291-0.034-0.422-0.222-0.471c-0.183-0.048-0.348,0.01-0.425,0.301l-0.053,0.203c-0.087,0.329,0.03,0.455,0.213,0.503
							c0.183,0.047,0.348-0.004,0.433-0.333L254.893,280.436z M255.113,278.28c-0.182-0.047-0.341,0.007-0.432,0.328l-0.089,0.339
							c-0.075,0.287,0.012,0.443,0.216,0.497c0.203,0.053,0.355-0.04,0.431-0.327l0.089-0.339
							C255.414,278.456,255.296,278.329,255.113,278.28z"/>
						<path d="M252.546,279.224l-1.006-0.387l0.193-0.502l1.006,0.386L252.546,279.224z"/>
						<path d="M248.949,278.384c-0.156,0.301-0.092,0.437,0.075,0.523c0.169,0.086,0.32,0.049,0.444-0.191l0.111-0.215l0.499,0.258
							l-0.094,0.182c-0.276,0.537-0.703,0.705-1.22,0.439c-0.518-0.267-0.628-0.712-0.352-1.248l0.045-0.087
							c0.185-0.359,0.413-0.521,0.722-0.495l0.005-0.01c-0.205-0.251-0.185-0.55-0.009-0.89l0.136-0.265
							c0.276-0.536,0.703-0.705,1.221-0.439c0.518,0.267,0.627,0.712,0.351,1.249l-0.143,0.277l-0.499-0.257l0.161-0.31
							c0.124-0.24,0.065-0.386-0.103-0.472c-0.168-0.087-0.315-0.06-0.468,0.238l-0.136,0.263c-0.161,0.311-0.115,0.48,0.125,0.605
							l0.178,0.091l-0.247,0.479l-0.206-0.104c-0.197-0.103-0.361-0.078-0.499,0.191L248.949,278.384z"/>
						<path d="M248.004,277.858c-0.34,0.538-0.771,0.674-1.29,0.348c-0.492-0.312-0.563-0.766-0.241-1.275l0.052-0.081l0.474,0.299
							l-0.072,0.114c-0.144,0.227-0.098,0.378,0.061,0.478c0.178,0.113,0.332,0.089,0.525-0.216l0.365-0.579l-0.009-0.006
							c-0.201,0.128-0.407,0.131-0.631-0.01c-0.369-0.233-0.393-0.611-0.096-1.079l0.368-0.584c0.322-0.511,0.775-0.633,1.267-0.322
							c0.493,0.311,0.578,0.772,0.255,1.283L248.004,277.858z M248.19,276.453l0.363-0.574c0.143-0.229,0.095-0.374-0.065-0.475
							c-0.159-0.1-0.311-0.081-0.456,0.147l-0.362,0.574c-0.145,0.228-0.099,0.377,0.061,0.478
							C247.892,276.704,248.047,276.681,248.19,276.453z"/>
						<path d="M246.935,274.423l0.336-0.461l0.462,0.336l-0.336,0.462L246.935,274.423z"/>
						<path d="M246.344,273.174c0.459,0.382,0.491,0.858,0.104,1.321l-0.189,0.229c-0.231,0.276-0.49,0.418-0.782,0.365
							l-0.007,0.008c0.104,0.263,0.037,0.528-0.201,0.815l-0.076,0.09c-0.386,0.464-0.859,0.518-1.319,0.136
							c-0.46-0.384-0.492-0.859-0.105-1.323l0.076-0.09c0.238-0.285,0.492-0.397,0.765-0.345l0.007-0.009
							c-0.106-0.277-0.013-0.558,0.218-0.835l0.189-0.228C245.411,272.845,245.884,272.79,246.344,273.174z M244.885,275.444
							c0.193-0.23,0.148-0.396-0.001-0.52c-0.145-0.121-0.319-0.14-0.512,0.093l-0.134,0.161c-0.218,0.26-0.164,0.425-0.019,0.545
							c0.145,0.121,0.314,0.144,0.532-0.117L244.885,275.444z M245.998,273.587c-0.145-0.12-0.311-0.14-0.528,0.114l-0.225,0.268
							c-0.189,0.228-0.178,0.406-0.016,0.541c0.162,0.135,0.34,0.115,0.53-0.113l0.224-0.27
							C246.197,273.871,246.144,273.708,245.998,273.587z"/>
						<path d="M243.747,272.319l-0.007-0.008l-2.199,1.583l-0.576-0.592l2.707-2.632l0.391,0.401l-1.94,1.888l0.007,0.008
							l2.219-1.601l0.391,0.402l-1.613,2.17l0.008,0.008l1.914-1.862l0.36,0.371l-2.706,2.634l-0.575-0.592L243.747,272.319z"/>
						<path d="M241.834,270.101l-0.006-0.008l-2.371,1.31l-0.501-0.656l2.999-2.29l0.34,0.445l-2.15,1.643l0.006,0.009l2.393-1.325
							l0.34,0.445l-1.859,1.962l0.007,0.009l2.12-1.62l0.314,0.412l-2.999,2.29l-0.5-0.656L241.834,270.101z"/>
						<path d="M238.308,268.822c-0.227-0.399-0.469-0.379-0.735-0.334l-0.197-0.348l3.284-1.864l0.293,0.518l-2.506,1.421
							l0.226,0.398L238.308,268.822z"/>
						<path d="M237.753,266.327l0.515-0.248l0.249,0.515l-0.515,0.248L237.753,266.327z M239.604,265.432l0.515-0.249l0.249,0.515
							l-0.515,0.249L239.604,265.432z"/>
						<path d="M236.754,265.743c-0.173-0.425-0.417-0.436-0.685-0.425l-0.151-0.369l3.492-1.423l0.224,0.55l-2.664,1.084
							l0.173,0.425L236.754,265.743z"/>
						<path d="M238.47,262.54l0.542-0.179l0.18,0.542l-0.542,0.18L238.47,262.54z"/>
						<path d="M238.72,261.185c0.151,0.579-0.101,0.985-0.686,1.137l-0.287,0.074c-0.35,0.091-0.644,0.056-0.849-0.157l-0.01,0.002
							c-0.068,0.273-0.278,0.451-0.639,0.545l-0.115,0.029c-0.584,0.152-1.001-0.08-1.152-0.659c-0.15-0.58,0.101-0.984,0.686-1.136
							l0.114-0.031c0.36-0.093,0.632-0.035,0.823,0.166l0.011-0.003c0.076-0.287,0.315-0.461,0.664-0.552l0.288-0.074
							C238.152,260.374,238.569,260.605,238.72,261.185z M236.209,262.184c0.293-0.076,0.351-0.236,0.302-0.424
							c-0.047-0.183-0.178-0.3-0.47-0.224l-0.204,0.053c-0.329,0.085-0.38,0.25-0.333,0.432c0.048,0.184,0.173,0.301,0.502,0.216
							L236.209,262.184z M238.198,261.321c-0.048-0.183-0.172-0.295-0.497-0.217l-0.339,0.088c-0.288,0.075-0.381,0.227-0.329,0.432
							c0.052,0.203,0.21,0.291,0.497,0.216l0.339-0.088C238.193,261.668,238.246,261.504,238.198,261.321z"/>
						<path d="M236.118,259.585l-0.157-1.066l0.534-0.08l0.158,1.068L236.118,259.585z"/>
						<path d="M234.662,256.33c0.008,0.188,0.114,0.304,0.384,0.293l0.404-0.016l0.021,0.561l-0.367,0.015
							c-0.604,0.023-0.96-0.266-0.983-0.848c-0.023-0.583,0.311-0.898,0.914-0.922c0.502-0.019,0.913,0.148,1.522,0.677
							c0.392,0.335,0.573,0.426,0.773,0.418c0.027-0.001,0.054-0.001,0.081-0.009l-0.043-1.121l0.539-0.02l0.066,1.713l-0.463,0.019
							c-0.421,0.017-0.745-0.122-1.225-0.546c-0.498-0.435-0.799-0.553-1.204-0.537C234.742,256.02,234.655,256.142,234.662,256.33z
							"/>
						<path d="M237.37,254.416l0.571,0.015l-0.015,0.572l-0.572-0.015L237.37,254.416z"/>
						<path d="M238.067,253.224c-0.055,0.596-0.429,0.892-1.03,0.835l-0.295-0.027c-0.36-0.033-0.623-0.166-0.745-0.437
							l-0.011-0.002c-0.157,0.234-0.415,0.33-0.785,0.296l-0.118-0.012c-0.602-0.056-0.914-0.415-0.859-1.012
							c0.056-0.595,0.431-0.89,1.031-0.835l0.118,0.012c0.371,0.034,0.606,0.181,0.718,0.435l0.011,0.001
							c0.169-0.244,0.453-0.327,0.812-0.294l0.296,0.027C237.81,252.269,238.123,252.628,238.067,253.224z M235.369,253.309
							c0.3,0.027,0.41-0.104,0.428-0.296c0.018-0.188-0.065-0.342-0.366-0.371l-0.21-0.018c-0.338-0.032-0.443,0.105-0.46,0.292
							c-0.018,0.189,0.061,0.342,0.398,0.373L235.369,253.309z M237.531,253.174c0.017-0.188-0.061-0.337-0.394-0.373l-0.348-0.031
							c-0.296-0.028-0.436,0.083-0.455,0.294c-0.02,0.209,0.098,0.344,0.393,0.371l0.349,0.032
							C237.408,253.497,237.513,253.362,237.531,253.174z"/>
					</g>
				</g>
			</g>
			<g>
				<path style="fill:#757575;stroke:#263238;stroke-linecap:round;stroke-linejoin:round;stroke-miterlimit:10;" d="M279.78,247.83
					v14.98c0,3.94-3.19,7.13-7.13,7.14h-22.94c-3.93-0.01-7.12-3.2-7.12-7.14v-14.98c0-3.94,3.18-7.12,7.11-7.14h22.97
					C276.6,240.71,279.78,243.89,279.78,247.83z"/>
				<path style="opacity:0.3;fill-opacity:0.7;" d="M279.78,247.83v14.98c0,3.94-3.19,7.13-7.13,7.14h-22.94
					c-3.93-0.01-7.12-3.2-7.12-7.14v-14.98c0-3.94,3.18-7.12,7.11-7.14h22.97C276.6,240.71,279.78,243.89,279.78,247.83z"/>
				<path style="opacity:0.3;fill-opacity:0.7;" d="M269.06,240.69h-4.43c6.63,1.55,11.58,7.51,11.58,14.62
					c0,7.12-4.95,13.09-11.58,14.64h4.41c5.21-2.8,8.75-8.3,8.75-14.63C277.79,248.99,274.26,243.5,269.06,240.69z M257.73,240.69
					h-4.42c-5.21,2.81-8.74,8.3-8.74,14.63c0,6.33,3.54,11.83,8.76,14.63h4.4c-6.62-1.55-11.57-7.52-11.57-14.64
					C246.16,248.2,251.11,242.24,257.73,240.69z"/>
				<path style="opacity:0.3;fill-opacity:0.7;" d="M261.182,242.139c-7.278,0-13.178,5.9-13.178,13.178
					c0,7.278,5.9,13.178,13.178,13.178c7.278,0,13.178-5.9,13.178-13.178C274.361,248.04,268.46,242.139,261.182,242.139z
					 M261.182,265.993c-5.896,0-10.675-4.779-10.675-10.675c0-5.896,4.779-10.675,10.675-10.675c5.896,0,10.675,4.779,10.675,10.675
					C271.857,261.213,267.078,265.993,261.182,265.993z"/>
				<circle style="fill:#263238;" cx="261.182" cy="255.318" r="7.403"/>
				
					<circle style="fill:none;stroke:#263238;stroke-linecap:round;stroke-linejoin:round;stroke-miterlimit:10;" cx="261.182" cy="255.318" r="11.192"/>
				<path style="fill:none;stroke:#263238;stroke-linecap:round;stroke-linejoin:round;stroke-miterlimit:10;" d="M276.206,255.315
					c0,7.12-4.945,13.081-11.575,14.631h-6.897c-6.63-1.55-11.575-7.512-11.575-14.631c0-7.111,4.945-13.072,11.575-14.622h6.897
					C271.261,242.243,276.206,248.204,276.206,255.315z"/>
				<path style="fill:none;stroke:#263238;stroke-linecap:round;stroke-linejoin:round;stroke-miterlimit:10;" d="M279.78,255.315
					c0,5.943-2.789,11.236-7.129,14.631h-22.936c-4.34-3.395-7.129-8.688-7.129-14.631c0-5.935,2.78-11.219,7.111-14.622h22.972
					C276.999,244.096,279.78,249.38,279.78,255.315z"/>
			</g>
			<g>
				<path style="fill:#BFBFBF;stroke:#263238;stroke-linecap:round;stroke-linejoin:round;stroke-miterlimit:10;" d="
					M312.64,222.418h-13.846c-0.727,0-1.316-0.589-1.316-1.316v-3.523c0-0.727,0.589-1.316,1.316-1.316h13.846
					c0.727,0,1.316,0.589,1.316,1.316v3.523C313.956,221.829,313.367,222.418,312.64,222.418z"/>
				<path style="fill:#FFFFFF;" d="M306.261,219.808h-7.038c-0.42,0-0.761-0.341-0.761-0.761v-0.807c0-0.42,0.341-0.761,0.761-0.761
					h7.038c0.42,0,0.761,0.341,0.761,0.761v0.807C307.022,219.467,306.681,219.808,306.261,219.808z"/>
				<path style="fill:#FFFFFF;" d="M309.624,219.808h-1.038c-0.42,0-0.761-0.341-0.761-0.761v-0.807c0-0.42,0.341-0.761,0.761-0.761
					h1.038c0.42,0,0.761,0.341,0.761,0.761v0.807C310.385,219.467,310.044,219.808,309.624,219.808z"/>
			</g>
			<g>
				<path style="fill:#263238;" d="M229.35,224.451h-6.467c-0.765,0-1.385-0.62-1.385-1.385v-3.104c0-0.765,0.62-1.385,1.385-1.385
					h6.467c0.765,0,1.385,0.62,1.385,1.385v3.104C230.735,223.831,230.115,224.451,229.35,224.451z"/>
				<path style="opacity:0.2;fill:#FFFFFF;" d="M229.204,223.88h-4.676c-0.485,0-0.879-0.393-0.879-0.879v-2.22
					c0-0.485,0.393-0.879,0.879-0.879h4.676c0.485,0,0.879,0.393,0.879,0.879v2.22C230.083,223.487,229.689,223.88,229.204,223.88z"
					/>
			</g>
		</g>
		<g>
			<g>
				<path style="fill:#FFFFFF;" d="M474.88,329.077c-3.956-4.352-12.659-7.879-15.626-14.802c-1.577-3.679-3.989-5.951-5.84-7.25
					c-1.654-1.161-2.988-2.702-3.874-4.517c-2.691-5.513-7.676-10.455-14.22-19.683c-7.714-10.879-11.077-20.176-13.846-23.538
					c-2.769-3.363-10.088-9.286-10.088-9.286c-2.967-7.308-6.651-9.901-6.651-9.901s-4.624-8.703-8.382-11.868
					c-3.758-3.165-8.703-3.363-13.846-3.165c-5.143,0.198-16.286-2.374-16.286-2.374s-16.747-3.758-22.484-3.758
					c-5.736,0-12.066,0-12.066,0s-3.363,0.791-4.945,3.165c-1.582,2.374-12.066,19.385-14.637,26.703
					c-2.571,7.319-3.165,11.472-2.176,15.429c0.989,3.956,3.363,12.659,3.363,12.659s5.538,16.418,5.736,18.593
					c0.198,2.176,12.461,4.154,12.857-6.132c0,0,1.582,6.33,3.956,10.286c2.374,3.956,9.297,2.176,10.484,0.396
					c0,0,4.747,12.066,5.143,15.033c0.396,2.967,4.945,3.165,7.517,0.593c2.572-2.571,4.747-11.67,3.165-16.22
					c0,0,10.297-11.473,12.275-18.396c0,0,11.769-2.426,13.197-1.312c0,0,0.44,3.403,3.209,5.522c0,0,7.121,16.955,6.923,40.493
					c0,0,5.923,25.121,33.418,25.912c27.494,0.791,35.011,17.802,35.011,17.802l20.703-30.923
					C486.869,338.539,478.836,333.428,474.88,329.077z M361.144,262.253c-2.176,2.769-6.132,7.912-8.901,13.253
					c-1.17,2.257-2.692,5.077-4.061,7.762c0,0-0.884-5.982-1.873-7.267c0,0,7.319-19.879,7.912-21.066c0,0,7.319,0,10.681,0
					c3.363,0,8.505-0.791,10.286,0.989C372.419,256.714,363.32,259.483,361.144,262.253z"/>
				<g>
					<path style="opacity:0.4;fill:#06b6d4;" d="M400.04,302.6c-1.29,2.5-2.44,4.58-3.36,6.45c-1.94-14.45-5.87-23.8-5.87-23.8
						c-2.76-2.12-3.2-5.52-3.2-5.52c-1.43-1.11-13.2,1.31-13.2,1.31c-1.98,6.93-12.28,18.4-12.28,18.4
						c1.59,4.55-0.59,13.65-3.16,16.22s-7.12,2.37-7.52-0.59c-0.39-2.97-5.14-15.04-5.14-15.04c-1.19,1.78-8.11,3.56-10.48-0.39
						c-2.38-3.96-3.96-10.29-3.96-10.29c-0.4,10.29-12.66,8.31-12.86,6.13c-0.2-2.17-5.73-18.59-5.73-18.59s-2.38-8.7-3.37-12.66
						c-0.07-0.26-0.12-0.52-0.18-0.79c2.62,1.1,6.04,2.12,8.7,1.43c5.01-1.3,13.97-29.77,16.35-34.26
						c2.37-4.49,9.61-6.83,11.53-6.45c1.92,0.38,19.86,3.73,19.86,3.73s-17.08-1.72-19.09-0.56c-2.01,1.16-6.12,3.82-6.97,4.73
						c-0.85,0.92-14.69,35.4-14.69,35.4s-1.33,6.82,5.2,8.72S341.9,276,341.9,276s8.73-20.82,8.17-22.59
						c-0.56-1.77,4.41-6.57,4.41-6.57s10.37,3.71,15.11,3.76c4.75,0.05,13.94-2.34,14.75,2.81c0,0-12.08,3.25-17.85,5.53
						c3.3-1.42,7.08-2.56,8.7-3.02c-1.78-1.78-6.93-0.99-10.29-0.99c-3.36,0-10.68,0-10.68,0c-0.59,1.19-7.91,21.07-7.91,21.07
						c0.99,1.29,1.87,7.27,1.87,7.27c1.37-2.69,2.89-5.51,4.06-7.76c2.77-5.35,6.73-10.49,8.9-13.26c0.54-0.68,1.51-1.38,2.69-2.02
						c-2.69,2.02-17.01,25.53-17.84,27.59c-0.83,2.06,3.14,9.77,8.49,9.51c5.36-0.26,18.73-20.35,18.73-20.35s14.21-0.14,18.09-2.56
						c3.88-2.41,5.46,0,5.46,0s-2.94,2.96-1.58,4.32c1.25,1.25,7.18-1.31,8.07-1.71c-1.04,0.57-9.11,4.92-8.87,6.24
						c0.27,1.4,7.21,6.11,10.82,5.68c0,0-6.33,3.39-8.18,3.11C395.18,291.79,403.59,295.75,400.04,302.6z"/>
					<path style="opacity:0.4;fill:#06b6d4;" d="M404.73,240.1c-1.13-2.03-6.15-7.63-13.92-8.04c-6.39-0.33-1.61-5.01,5.2-4.1h0.01
						l0.01,0.01c0.12,0.09,0.21,0.17,0.32,0.26C400.11,231.4,404.73,240.1,404.73,240.1z"/>
					<path style="opacity:0.4;fill:#06b6d4;" d="M411.39,250c-3.55-1.2-7.51-1.49-9.36-1.47c-1.2,0.01,2.72-3.06,6.26-4.42
						C409.29,245.58,410.38,247.52,411.39,250z"/>
					<path style="opacity:0.4;fill:#06b6d4;" d="M482.04,335.2c-7.53-2.62-20.17-6.11-22.25-12.82c-2.37-7.64-6.59-6.85-8.97-9.88
						c-2.22-2.84-2.13-11.61-6.01-17.22c1.98,2.57,3.57,4.84,4.73,7.23c0.89,1.81,2.22,3.35,3.87,4.51c1.86,1.3,4.27,3.58,5.84,7.25
						c2.97,6.93,11.67,10.46,15.63,14.81C476.78,331.17,479.61,333.42,482.04,335.2z"/>
				</g>
				<path style="fill:none;stroke:#263238;stroke-linecap:round;stroke-linejoin:round;stroke-miterlimit:10;" d="M373.21,227.637
					c-3.56,0.791-20.769-0.396-22.747-0.791c-1.978-0.396-7.714,1.78-9.494,3.758c-1.78,1.978-16.22,36.791-16.22,39.363
					c0,2.572,2.374,7.714,3.399,9.765c1.025,2.051,3.722,9.619,3.722,9.619"/>
				<path style="fill:none;stroke:#263238;stroke-linecap:round;stroke-linejoin:round;stroke-miterlimit:10;" d="M486.869,338.539
					c0,0-8.033-5.11-11.989-9.462c-3.956-4.352-12.659-7.879-15.626-14.802c-1.577-3.679-3.989-5.951-5.84-7.25
					c-1.654-1.161-2.988-2.702-3.874-4.517c-2.691-5.513-7.676-10.455-14.22-19.683c-7.714-10.879-11.077-20.176-13.846-23.538
					c-2.769-3.363-10.088-9.286-10.088-9.286c-2.967-7.308-6.651-9.901-6.651-9.901s-4.624-8.703-8.382-11.868
					c-3.758-3.165-8.703-3.363-13.846-3.165c-5.143,0.198-16.286-2.374-16.286-2.374s-16.747-3.758-22.484-3.758
					c-5.736,0-12.066,0-12.066,0s-3.363,0.791-4.945,3.165c-1.582,2.374-12.066,19.385-14.637,26.703
					c-2.571,7.319-3.165,11.472-2.176,15.429c0.989,3.956,3.363,12.659,3.363,12.659s5.539,16.418,5.736,18.593
					c0.198,2.176,12.461,4.154,12.857-6.132c0,0,1.582,6.33,3.956,10.286c2.374,3.956,9.297,2.176,10.484,0.396
					c0,0,4.747,12.066,5.143,15.033c0.396,2.967,4.945,3.165,7.516,0.593c2.572-2.571,4.747-11.67,3.165-16.22
					c0,0,10.297-11.473,12.275-18.396c0,0,11.769-2.426,13.198-1.312c0,0,0.44,3.403,3.209,5.522c0,0,2.966,7.061,5.016,18.396
					c1.127,6.229-1.071,16.954,4.775,25.064"/>
				<path style="fill:none;stroke:#263238;stroke-linecap:round;stroke-linejoin:round;stroke-miterlimit:10;" d="M346.309,300.033
					c0,0-1.582-5.934-1.582-8.308c0-2.374,4.747-10.879,7.517-16.22c2.769-5.341,6.725-10.483,8.901-13.253
					c2.176-2.769,11.275-5.538,14.044-6.33s10.197-2.374,12.417-3.956"/>
				<path style="fill:none;stroke:#263238;stroke-linecap:round;stroke-linejoin:round;stroke-miterlimit:10;" d="M348.182,283.267
					c0,0-0.884-5.982-1.873-7.267c0,0,7.319-19.879,7.912-21.066c0.593-1.187,0-4.934,0-4.934"/>
				<path style="fill:none;stroke:#263238;stroke-linecap:round;stroke-linejoin:round;stroke-miterlimit:10;" d="M354.221,254.934
					c0,0,7.319,0,10.681,0c3.363,0,8.505-0.791,10.286,0.989"/>
				<path style="fill:none;stroke:#263238;stroke-linecap:round;stroke-linejoin:round;stroke-miterlimit:10;" d="M387.605,279.732
					c0,0,6.77-1.062,10.528-7.194"/>
				<path style="fill:none;stroke:#263238;stroke-linecap:round;stroke-linejoin:round;stroke-miterlimit:10;" d="M388.697,279.477
					c4.172,3.149,16.755-1.005,22.689-7.928"/>
				<path style="fill:none;stroke:#263238;stroke-linecap:round;stroke-linejoin:round;stroke-miterlimit:10;" d="M390.814,285.254
					c0,0,11.868,5.964,19.582,2.756"/>
			</g>
			<g>
				<path style="fill:#FFFFFF;" d="M13.131,323.831l16.978,33.216c0,0,8.635-16.471,36.121-15.426s35.072-23.624,35.072-23.624
					c1.374-23.499,9.61-39.941,9.61-39.941c2.904-1.93,3.57-5.296,3.57-5.296c1.5-1.016,13.081,2.19,13.081,2.19
					c1.512,7.04,11.02,19.174,11.02,19.174c-1.883,4.434-0.319,13.658,2.075,16.395c2.394,2.737,6.946,2.844,7.539-0.09
					c0.593-2.934,6.135-14.656,6.135-14.656c1.065,1.855,7.854,4.094,10.487,0.305c2.632-3.789,4.634-9.999,4.634-9.999
					c-0.292,10.289,12.077,9.134,12.419,6.976c0.343-2.158,6.964-18.169,6.964-18.169s2.949-8.526,4.2-12.407
					c1.251-3.881,0.936-8.065-1.141-15.539c-2.077-7.474-11.402-25.147-12.822-27.621c-1.421-2.474-4.723-3.488-4.723-3.488
					s-6.316-0.422-12.039-0.805c-5.723-0.383-22.684,2.249-22.684,2.249s-11.29,1.822-16.408,1.281s-10.065-0.673-14.026,2.234
					c-3.961,2.907-9.155,11.282-9.155,11.282s-3.849,2.342-7.297,9.435c0,0-7.698,5.421-10.685,8.592
					c-2.988,3.17-6.963,12.222-15.386,22.562c-7.144,8.77-12.449,13.369-15.502,18.69c-1.005,1.753-2.439,3.201-4.167,4.249
					c-1.934,1.173-4.492,3.278-6.311,6.844c-3.422,6.71-12.342,9.648-16.579,13.726C19.872,320.25,13.131,323.831,13.131,323.831z
					 M128.462,249.834c1.895-1.658,6.974-0.525,10.329-0.3c3.355,0.224,10.658,0.713,10.658,0.713
					c0.513,1.224,6.488,21.547,6.488,21.547c-1.073,1.217-2.354,7.126-2.354,7.126c-1.187-2.771-2.517-5.686-3.534-8.016
					c-2.407-5.514-6.011-10.909-7.997-13.817C140.065,254.179,131.172,250.809,128.462,249.834z"/>
				<g>
					<path style="opacity:0.4;fill:#06b6d4;" d="M130.71,250.68c0.87,0.34,1.87,0.74,2.9,1.19
						C132.68,251.48,131.7,251.08,130.71,250.68z"/>
					<path style="opacity:0.4;fill:#06b6d4;" d="M193.04,262.47v0.01c-1.25,3.88-4.2,12.41-4.2,12.41s-6.63,16.01-6.97,18.17
						c-0.34,2.15-12.71,3.31-12.42-6.98c0,0-2,6.21-4.63,10c-2.63,3.79-9.42,1.55-10.49-0.31c0,0-5.54,11.73-6.13,14.66
						c-0.6,2.93-5.15,2.83-7.54,0.09c-2.4-2.74-3.96-11.96-2.08-16.4c0,0-9.51-12.13-11.02-19.17c0,0-11.58-3.2-13.08-2.19
						c0,0-0.66,3.37-3.57,5.3c0,0-4.58,9.15-7.48,23.55c-0.8-2.06-1.85-4.36-3.04-7.17c-3.01-7.11,5.68-10.41,3.82-10.28
						s-7.91-3.73-7.91-3.73c3.57,0.7,10.85-3.46,11.22-4.84c0.34-1.28-7.29-6.21-8.35-6.89c0.9,0.48,6.57,3.46,7.91,2.31
						c1.45-1.25-1.25-4.42-1.25-4.42s1.77-2.28,5.44,0.42c3.68,2.71,17.84,3.94,17.84,3.94s11.79,21.06,17.11,21.73
						c5.31,0.68,9.87-6.71,9.2-8.83c-0.65-2.05-12.42-25.24-15.42-28.63c0.91,0.63,1.63,1.26,2.05,1.87c1.99,2.91,5.59,8.3,8,13.81
						c1.02,2.33,2.35,5.25,3.53,8.02c0,0,1.28-5.91,2.36-7.13c0,0-5.98-20.32-6.49-21.54c0,0-7.3-0.49-10.66-0.72
						c-3.33-0.22-8.38-1.34-10.3,0.28c-4.53-1.75-8.66-3.21-8.66-3.21c1.21-5.07,10.18-1.99,14.92-1.67
						c4.74,0.31,15.35-2.58,15.35-2.58s4.59,5.16,3.9,6.89c-0.7,1.72,6.41,23.15,6.41,23.15s4.57,2.43,11.23,1.04
						c6.66-1.39,5.85-8.29,5.85-8.29s-11.14-35.45-11.92-36.42c-0.77-0.98-4.66-3.94-6.58-5.25c-1.92-1.32-19.07-0.92-19.07-0.92
						s18.14-1.96,20.08-2.19c1.95-0.24,8.98,2.66,11,7.32c2.03,4.66,8.77,33.73,13.67,35.41
						C187.14,263.94,190.41,263.31,193.04,262.47z"/>
					<path style="opacity:0.4;fill:#06b6d4;" d="M115.02,224.81c-7.78-0.19-13.21,5.01-14.5,6.94c0,0-0.05-0.08-0.13-0.22
						c1.21-1.89,5.45-8.28,8.8-10.74c0.22-0.16,0.43-0.32,0.66-0.45c0.01,0,0.01-0.01,0.02-0.01
						C116.88,219.79,121.51,224.98,115.02,224.81z"/>
					<path style="opacity:0.4;fill:#06b6d4;" d="M102.57,240.36c-1.84-0.15-5.81-0.17-9.44,0.75c0,0-0.05-0.04-0.13-0.13
						c1.2-2.38,2.44-4.2,3.54-5.55C100.01,237.02,103.78,240.47,102.57,240.36z"/>
					<path style="opacity:0.4;fill:#06b6d4;" d="M54.29,286.9c-2.55,5.09-3.3,11.32-5.29,13.49c-2.6,2.84-6.75,1.73-9.7,9.17
						c-2.22,5.58-11.95,8.22-19.54,10.14c1.51-1.07,3.05-2.28,4.35-3.53c4.24-4.08,13.16-7.02,16.58-13.72
						c1.82-3.57,4.38-5.68,6.31-6.85c1.73-1.05,3.16-2.5,4.17-4.25C52.03,289.85,53.07,288.4,54.29,286.9z"/>
				</g>
				<path style="fill:none;stroke:#263238;stroke-linecap:round;stroke-linejoin:round;stroke-miterlimit:10;" d="M169.453,286.079
					c0,0,3.196-7.372,4.356-9.35c1.16-1.978,3.871-6.951,4.043-9.517c0.172-2.566-11.912-38.265-13.557-40.357
					c-1.644-2.092-7.223-4.646-9.223-4.384s-19.25,0.298-22.749-0.729"/>
				<path style="fill:none;stroke:#263238;stroke-linecap:round;stroke-linejoin:round;stroke-miterlimit:10;" d="M13.131,323.831
					c0,0,6.741-3.582,10.978-7.66c4.238-4.078,13.157-7.017,16.579-13.726c1.819-3.566,4.377-5.672,6.311-6.844
					c1.728-1.048,3.162-2.496,4.167-4.249c3.053-5.321,8.357-9.92,15.502-18.69c8.423-10.34,12.399-19.392,15.386-22.562
					c2.988-3.17,10.685-8.592,10.685-8.592c3.448-7.093,7.297-9.435,7.297-9.435s5.194-8.375,9.155-11.282
					c3.961-2.907,8.908-2.774,14.026-2.234s16.408-1.281,16.408-1.281s16.961-2.632,22.684-2.249
					c5.723,0.383,12.039,0.805,12.039,0.805s3.302,1.014,4.723,3.488c1.42,2.474,10.745,20.147,12.822,27.621
					c2.077,7.474,2.392,11.658,1.141,15.539c-1.251,3.881-4.2,12.407-4.2,12.407s-6.622,16.011-6.964,18.169
					c-0.342,2.158-12.711,3.313-12.419-6.976c0,0-2.001,6.21-4.634,9.999c-2.632,3.789-9.421,1.551-10.486-0.305
					c0,0-5.542,11.722-6.135,14.656c-0.593,2.934-5.145,2.828-7.539,0.091c-2.394-2.737-3.958-11.961-2.075-16.395
					c0,0-9.508-12.134-11.02-19.174c0,0-11.58-3.206-13.081-2.19c0,0-0.666,3.366-3.57,5.296c0,0-3.43,6.848-6.233,18.021
					c-1.54,6.14-0.063,16.987-6.437,24.689"/>
				<path style="fill:none;stroke:#263238;stroke-linecap:round;stroke-linejoin:round;stroke-miterlimit:10;" d="M154.332,295.773
					c0,0,1.975-5.815,2.133-8.184c0.158-2.368-4.011-11.172-6.417-16.685c-2.407-5.514-6.011-10.909-7.997-13.817
					c-1.986-2.908-10.88-6.279-13.59-7.253c-2.71-0.974-10.016-3.049-12.126-4.776"/>
				<path style="fill:none;stroke:#263238;stroke-linecap:round;stroke-linejoin:round;stroke-miterlimit:10;" d="M153.582,278.92
					c0,0,1.282-5.909,2.354-7.126c0,0-5.976-20.323-6.488-21.547c-0.513-1.224,0.329-4.923,0.329-4.923"/>
				<path style="fill:none;stroke:#263238;stroke-linecap:round;stroke-linejoin:round;stroke-miterlimit:10;" d="M149.448,250.247
					c0,0-7.302-0.488-10.658-0.713c-3.355-0.224-8.434-1.357-10.329,0.3"/>
				<path style="fill:none;stroke:#263238;stroke-linecap:round;stroke-linejoin:round;stroke-miterlimit:10;" d="M114.483,272.762
					c0,0-6.684-1.511-10.024-7.88"/>
				<path style="fill:none;stroke:#263238;stroke-linecap:round;stroke-linejoin:round;stroke-miterlimit:10;" d="M113.411,272.434
					c-4.373,2.864-16.651-2.121-22.109-9.424"/>
				<path style="fill:none;stroke:#263238;stroke-linecap:round;stroke-linejoin:round;stroke-miterlimit:10;" d="M110.912,278.057
					c0,0-12.24,5.159-19.723,1.443"/>
			</g>
		</g>
	</g>
</g>
</svg>
